<svg width="36" height="35" viewBox="0 0 36 35" fill="none" xmlns="http://www.w3.org/2000/svg">
<path d="M34.678 8.64075L26.8593 0.820296C26.5993 0.560234 26.2906 0.353938 25.9508 0.21319C25.6111 0.0724425 25.2469 0 24.8792 0C24.5115 0 24.1473 0.0724425 23.8076 0.21319C23.4678 0.353938 23.1592 0.560234 22.8992 0.820296L1.32073 22.4005C1.05961 22.6595 0.852579 22.9679 0.711684 23.3077C0.57079 23.6474 0.498839 24.0118 0.500014 24.3796V32.2001C0.500014 32.9427 0.795002 33.6548 1.32008 34.1799C1.84517 34.705 2.55733 35 3.29991 35H11.1204C11.4882 35.0012 11.8526 34.9292 12.1923 34.7883C12.5321 34.6474 12.8405 34.4404 13.0995 34.1793L34.678 12.6008C34.938 12.3408 35.1443 12.0322 35.2851 11.6924C35.4258 11.3527 35.4983 10.9885 35.4983 10.6208C35.4983 10.2531 35.4258 9.88891 35.2851 9.54917C35.1443 9.20943 34.938 8.90075 34.678 8.64075ZM3.87913 23.8004L18.6993 8.98023L21.62 11.9009L6.79977 26.7193L3.87913 23.8004ZM3.29991 27.1795L8.32047 32.2001H3.29991V27.1795ZM11.6996 31.6209L8.77895 28.7002L23.5991 13.88L26.5198 16.8007L11.6996 31.6209ZM28.4989 14.8215L20.6785 7.00106L24.8783 2.80122L32.6988 10.6199L28.4989 14.8215Z" fill="black"/>
</svg>
