<svg width="43" height="35" viewBox="0 0 43 35" fill="none" xmlns="http://www.w3.org/2000/svg">
<path d="M42.5194 17.5C42.5175 15.6448 41.9903 13.828 40.9989 12.2599C40.0074 10.6919 38.5922 9.43662 36.917 8.63944V8.39609C36.9153 6.59145 36.3328 4.83526 35.2556 3.38738C34.1784 1.93951 32.6637 0.876862 30.9357 0.356681C29.2076 -0.163501 27.358 -0.113583 25.6605 0.499047C23.9631 1.11168 22.5079 2.25448 21.5103 3.75835C20.5128 2.25448 19.0576 1.11168 17.3601 0.499047C15.6627 -0.113583 13.8131 -0.163501 12.085 0.356681C10.357 0.876862 8.84228 1.93951 7.76506 3.38738C6.68785 4.83526 6.10534 6.59145 6.10372 8.39609V8.63944C4.42709 9.43443 3.01048 10.6889 2.01853 12.2571C1.02657 13.8252 0.5 15.6427 0.5 17.4982C0.5 19.3538 1.02657 21.1713 2.01853 22.7394C3.01048 24.3076 4.42709 25.5621 6.10372 26.3571V26.6039C6.10534 28.4086 6.68785 30.1647 7.76506 31.6126C8.84228 33.0605 10.357 34.1231 12.085 34.6433C13.8131 35.1635 15.6627 35.1136 17.3601 34.501C19.0576 33.8883 20.5128 32.7455 21.5103 31.2417C22.5079 32.7455 23.9631 33.8883 25.6605 34.501C27.358 35.1136 29.2076 35.1635 30.9357 34.6433C32.6637 34.1231 34.1784 33.0605 35.2556 31.6126C36.3328 30.1647 36.9153 28.4086 36.917 26.6039V26.3571C38.5919 25.5605 40.007 24.3058 40.9985 22.7384C41.99 21.1709 42.5173 19.3547 42.5194 17.5ZM14.5073 32.2063C13.1259 32.2061 11.7932 31.6955 10.7653 30.7726C9.73739 29.8497 9.08669 28.5796 8.93819 27.2062C9.39111 27.2708 9.84801 27.3035 10.3055 27.3042H11.7061C12.0776 27.3042 12.4338 27.1567 12.6965 26.894C12.9592 26.6313 13.1067 26.2751 13.1067 25.9036C13.1067 25.5321 12.9592 25.1759 12.6965 24.9132C12.4338 24.6506 12.0776 24.503 11.7061 24.503H10.3055C8.65204 24.5049 7.05121 23.9217 5.78645 22.8567C4.52168 21.7916 3.67457 20.3134 3.39509 18.6837C3.11562 17.054 3.4218 15.378 4.25943 13.9524C5.09707 12.5267 6.41212 11.4435 7.97177 10.8944C8.24467 10.7978 8.48092 10.619 8.64802 10.3826C8.81513 10.1462 8.90488 9.86384 8.90492 9.57435V8.39609C8.90492 6.91024 9.49517 5.48524 10.5458 4.43459C11.5965 3.38393 13.0215 2.79368 14.5073 2.79368C15.9932 2.79368 17.4182 3.38393 18.4688 4.43459C19.5195 5.48524 20.1097 6.91024 20.1097 8.39609V20.3467C18.5717 18.9634 16.5759 18.1988 14.5073 18.2003C14.1359 18.2003 13.7796 18.3479 13.517 18.6105C13.2543 18.8732 13.1067 19.2294 13.1067 19.6009C13.1067 19.9724 13.2543 20.3286 13.517 20.5913C13.7796 20.8539 14.1359 21.0015 14.5073 21.0015C15.9932 21.0015 17.4182 21.5918 18.4688 22.6424C19.5195 23.6931 20.1097 25.1181 20.1097 26.6039C20.1097 28.0898 19.5195 29.5148 18.4688 30.5654C17.4182 31.6161 15.9932 32.2063 14.5073 32.2063ZM32.7152 24.503H31.3146C30.9431 24.503 30.5868 24.6506 30.3242 24.9132C30.0615 25.1759 29.9139 25.5321 29.9139 25.9036C29.9139 26.2751 30.0615 26.6313 30.3242 26.894C30.5868 27.1567 30.9431 27.3042 31.3146 27.3042H32.7152C33.1727 27.3035 33.6296 27.2708 34.0825 27.2062C33.9661 28.2823 33.5405 29.3017 32.8571 30.1411C32.1737 30.9805 31.2618 31.6039 30.2317 31.936C29.2015 32.2682 28.0971 32.2948 27.0521 32.0126C26.0072 31.7305 25.0663 31.1516 24.3433 30.3461C23.6203 29.5406 23.1461 28.5429 22.9781 27.4736C22.81 26.4043 22.9553 25.3093 23.3964 24.3208C23.8375 23.3324 24.5555 22.4929 25.4636 21.9038C26.3717 21.3148 27.4309 21.0013 28.5133 21.0015C28.8848 21.0015 29.2411 20.8539 29.5037 20.5913C29.7664 20.3286 29.9139 19.9724 29.9139 19.6009C29.9139 19.2294 29.7664 18.8732 29.5037 18.6105C29.2411 18.3479 28.8848 18.2003 28.5133 18.2003C26.4448 18.1988 24.4489 18.9634 22.9109 20.3467V8.39609C22.9109 6.91024 23.5012 5.48524 24.5518 4.43459C25.6025 3.38393 27.0275 2.79368 28.5133 2.79368C29.9992 2.79368 31.4242 3.38393 32.4748 4.43459C33.5255 5.48524 34.1158 6.91024 34.1158 8.39609V9.57435C34.1158 9.86384 34.2055 10.1462 34.3727 10.3826C34.5398 10.619 34.776 10.7978 35.0489 10.8944C36.6086 11.4435 37.9236 12.5267 38.7612 13.9524C39.5989 15.378 39.9051 17.054 39.6256 18.6837C39.3461 20.3134 38.499 21.7916 37.2342 22.8567C35.9695 23.9217 34.3686 24.5049 32.7152 24.503ZM35.5164 15.3991C35.5164 15.7706 35.3688 16.1268 35.1061 16.3895C34.8435 16.6521 34.4872 16.7997 34.1158 16.7997H33.4155C31.7439 16.7997 30.1408 16.1357 28.9588 14.9537C27.7768 13.7717 27.1127 12.1686 27.1127 10.497V9.79669C27.1127 9.42523 27.2603 9.06898 27.523 8.80632C27.7856 8.54365 28.1419 8.39609 28.5133 8.39609C28.8848 8.39609 29.2411 8.54365 29.5037 8.80632C29.7664 9.06898 29.9139 9.42523 29.9139 9.79669V10.497C29.9139 11.4256 30.2829 12.3163 30.9395 12.9729C31.5962 13.6296 32.4868 13.9985 33.4155 13.9985H34.1158C34.4872 13.9985 34.8435 14.1461 35.1061 14.4087C35.3688 14.6714 35.5164 15.0276 35.5164 15.3991ZM9.60522 16.7997H8.90492C8.53346 16.7997 8.17721 16.6521 7.91455 16.3895C7.65188 16.1268 7.50432 15.7706 7.50432 15.3991C7.50432 15.0276 7.65188 14.6714 7.91455 14.4087C8.17721 14.1461 8.53346 13.9985 8.90492 13.9985H9.60522C10.5339 13.9985 11.4245 13.6296 12.0812 12.9729C12.7378 12.3163 13.1067 11.4256 13.1067 10.497V9.79669C13.1067 9.42523 13.2543 9.06898 13.517 8.80632C13.7796 8.54365 14.1359 8.39609 14.5073 8.39609C14.8788 8.39609 15.235 8.54365 15.4977 8.80632C15.7604 9.06898 15.9079 9.42523 15.9079 9.79669V10.497C15.9079 12.1686 15.2439 13.7717 14.0619 14.9537C12.8799 16.1357 11.2768 16.7997 9.60522 16.7997Z" fill="black"/>
</svg>
