<svg width="28" height="35" viewBox="0 0 28 35" fill="none" xmlns="http://www.w3.org/2000/svg">
<path d="M21.7478 33.7501C21.7478 34.0816 21.6161 34.3995 21.3817 34.6339C21.1473 34.8683 20.8294 35 20.4979 35H7.99935C7.66787 35 7.34996 34.8683 7.11557 34.6339C6.88117 34.3995 6.74949 34.0816 6.74949 33.7501C6.74949 33.4187 6.88117 33.1008 7.11557 32.8664C7.34996 32.632 7.66787 32.5003 7.99935 32.5003H20.4979C20.8294 32.5003 21.1473 32.632 21.3817 32.8664C21.6161 33.1008 21.7478 33.4187 21.7478 33.7501ZM27.9971 13.7524C28.0025 15.836 27.5318 17.8933 26.6209 19.7672C25.7101 21.6412 24.3831 23.2823 22.7414 24.5653C22.4344 24.8006 22.1853 25.1029 22.0131 25.4492C21.8409 25.7956 21.7501 26.1767 21.7478 26.5635V27.5009C21.7478 28.1638 21.4844 28.7996 21.0156 29.2684C20.5468 29.7372 19.911 30.0006 19.2481 30.0006H9.24921C8.58624 30.0006 7.95043 29.7372 7.48164 29.2684C7.01285 28.7996 6.74949 28.1638 6.74949 27.5009V26.5635C6.74924 26.1813 6.66137 25.8043 6.49263 25.4614C6.3239 25.1185 6.0788 24.8189 5.77616 24.5856C4.13854 23.3102 2.81251 21.6789 1.89845 19.8153C0.984385 17.9518 0.50624 15.9047 0.500204 13.829C0.459584 6.38295 6.47765 0.182095 13.9174 0.00399046C15.7506 -0.0401847 17.574 0.282792 19.2805 0.95391C20.9869 1.62503 22.5419 2.63073 23.8539 3.91181C25.1658 5.1929 26.2082 6.72348 26.9198 8.41348C27.6313 10.1035 27.9976 11.9187 27.9971 13.7524ZM25.4974 13.7524C25.4978 12.2521 25.1981 10.7668 24.6159 9.384C24.0336 8.00121 23.1807 6.74888 22.1072 5.7007C21.0337 4.65253 19.7613 3.8297 18.365 3.28066C16.9687 2.73161 15.4767 2.46745 13.9768 2.50371C7.88374 2.64744 2.96711 7.7203 2.99992 13.8134C3.00563 15.511 3.39737 17.185 4.1455 18.7089C4.89363 20.2328 5.97855 21.5665 7.31818 22.6092C7.92036 23.0774 8.40745 23.6771 8.74216 24.3625C9.07686 25.0478 9.2503 25.8007 9.24921 26.5635V27.5009H19.2481V26.5635C19.2498 25.7985 19.4262 25.0441 19.7638 24.3578C20.1015 23.6714 20.5914 23.0712 21.1963 22.603C22.54 21.5528 23.6261 20.2095 24.3715 18.6757C25.1169 17.1418 25.502 15.4578 25.4974 13.7524ZM22.9805 12.2932C22.6564 10.4829 21.7854 8.81543 20.4849 7.51516C19.1843 6.2149 17.5166 5.34431 15.7063 5.02061C15.5444 4.99332 15.3787 4.99818 15.2187 5.03492C15.0587 5.07166 14.9076 5.13955 14.7738 5.23472C14.64 5.32989 14.5263 5.45047 14.4392 5.58958C14.352 5.7287 14.2931 5.88361 14.2658 6.04549C14.2385 6.20737 14.2434 6.37303 14.2801 6.53303C14.3169 6.69303 14.3848 6.84422 14.4799 6.97798C14.5751 7.11174 14.6957 7.22544 14.8348 7.3126C14.9739 7.39976 15.1288 7.45866 15.2907 7.48595C17.8795 7.92184 20.0761 10.1185 20.5151 12.7119C20.5646 13.003 20.7155 13.2672 20.9411 13.4577C21.1667 13.6481 21.4525 13.7525 21.7478 13.7524C21.8184 13.752 21.8889 13.7463 21.9587 13.7352C22.2854 13.6795 22.5766 13.4962 22.7682 13.2258C22.9598 12.9554 23.0361 12.6199 22.9805 12.2932Z" fill="black"/>
</svg>
