<svg width="22" height="20" viewBox="0 0 22 20" fill="none" xmlns="http://www.w3.org/2000/svg">
<path d="M15.1623 10.2996L13.7123 8.84961C13.8623 8.06628 13.6373 7.33294 13.0373 6.64961C12.4373 5.96628 11.6623 5.69961 10.7123 5.84961L9.2623 4.39961C9.54564 4.26628 9.83297 4.16628 10.1243 4.09961C10.4163 4.03294 10.729 3.99961 11.0623 3.99961C12.3123 3.99961 13.375 4.43694 14.2503 5.31161C15.125 6.18694 15.5623 7.24961 15.5623 8.49961C15.5623 8.83294 15.529 9.14561 15.4623 9.43761C15.3956 9.72894 15.2956 10.0163 15.1623 10.2996ZM18.3623 13.4496L16.9123 12.0496C17.5456 11.5663 18.1083 11.0369 18.6003 10.4616C19.0916 9.88694 19.5123 9.23294 19.8623 8.49961C19.029 6.81628 17.833 5.47861 16.2743 4.48661C14.7163 3.49528 12.979 2.99961 11.0623 2.99961C10.579 2.99961 10.104 3.03294 9.6373 3.09961C9.17064 3.16628 8.7123 3.26628 8.2623 3.39961L6.71231 1.84961C7.39564 1.56628 8.09564 1.35361 8.8123 1.21161C9.52897 1.07028 10.279 0.999609 11.0623 0.999609C13.4456 0.999609 15.5873 1.62861 17.4873 2.88661C19.3873 4.14528 20.8123 5.78294 21.7623 7.79961C21.8123 7.88294 21.8456 7.98694 21.8623 8.11161C21.879 8.23694 21.8873 8.36628 21.8873 8.49961C21.8873 8.63294 21.875 8.76194 21.8503 8.88661C21.825 9.01194 21.7956 9.11628 21.7623 9.19961C21.379 10.0496 20.9 10.8329 20.3253 11.5496C19.75 12.2663 19.0956 12.8996 18.3623 13.4496ZM18.1623 18.8996L14.6623 15.4496C14.079 15.6329 13.4916 15.7706 12.9003 15.8626C12.3083 15.9539 11.6956 15.9996 11.0623 15.9996C8.67897 15.9996 6.5373 15.3706 4.6373 14.1126C2.7373 12.8539 1.3123 11.2163 0.362305 9.19961C0.312305 9.11628 0.278971 9.01194 0.262305 8.88661C0.245638 8.76194 0.237305 8.63294 0.237305 8.49961C0.237305 8.36628 0.245638 8.24128 0.262305 8.12461C0.278971 8.00794 0.312305 7.90794 0.362305 7.82461C0.712305 7.07461 1.12897 6.38294 1.6123 5.74961C2.09564 5.11628 2.62897 4.53294 3.2123 3.99961L1.1373 1.89961C0.953971 1.71628 0.862305 1.48694 0.862305 1.21161C0.862305 0.936943 0.962305 0.699609 1.1623 0.499609C1.34564 0.316276 1.57897 0.224609 1.8623 0.224609C2.14564 0.224609 2.37897 0.316276 2.5623 0.499609L19.5623 17.4996C19.7456 17.6829 19.8416 17.9123 19.8503 18.1876C19.8583 18.4623 19.7623 18.6996 19.5623 18.8996C19.379 19.0829 19.1456 19.1746 18.8623 19.1746C18.579 19.1746 18.3456 19.0829 18.1623 18.8996ZM4.6123 5.39961C4.12897 5.83294 3.6873 6.30794 3.2873 6.82461C2.8873 7.34128 2.54564 7.89961 2.2623 8.49961C3.09564 10.1829 4.29131 11.5203 5.84931 12.5116C7.40797 13.5036 9.14564 13.9996 11.0623 13.9996C11.3956 13.9996 11.7206 13.9789 12.0373 13.9376C12.354 13.8956 12.679 13.8496 13.0123 13.7996L12.1123 12.8496C11.929 12.8996 11.754 12.9369 11.5873 12.9616C11.4206 12.9869 11.2456 12.9996 11.0623 12.9996C9.8123 12.9996 8.74964 12.5623 7.8743 11.6876C6.99964 10.8123 6.5623 9.74961 6.5623 8.49961C6.5623 8.31628 6.57464 8.14128 6.59931 7.97461C6.62464 7.80794 6.6623 7.63294 6.71231 7.44961L4.6123 5.39961Z" fill="#1F2122"/>
</svg>
