<svg width="14" height="14" viewBox="0 0 14 14" fill="none" xmlns="http://www.w3.org/2000/svg">
<path d="M7.02982 11.0007C7.26315 11.0007 7.46048 10.92 7.62182 10.7586C7.78271 10.5978 7.86315 10.4007 7.86315 10.1673C7.86315 9.93398 7.78271 9.73687 7.62182 9.57598C7.46048 9.41465 7.26315 9.33398 7.02982 9.33398C6.79648 9.33398 6.59915 9.41465 6.43782 9.57598C6.27693 9.73687 6.19648 9.93398 6.19648 10.1673C6.19648 10.4007 6.27693 10.5978 6.43782 10.7586C6.59915 10.92 6.79648 11.0007 7.02982 11.0007ZM7.12982 4.13398C7.44093 4.13398 7.69093 4.21998 7.87982 4.39198C8.06871 4.56443 8.16315 4.78954 8.16315 5.06732C8.16315 5.25621 8.09937 5.44776 7.97182 5.64198C7.84382 5.83665 7.66315 6.03954 7.42982 6.25065C7.09648 6.53954 6.85204 6.81732 6.69648 7.08398C6.54093 7.35065 6.46315 7.61732 6.46315 7.88398C6.46315 8.03954 6.5216 8.16998 6.63848 8.27532C6.75493 8.38109 6.89093 8.43398 7.04648 8.43398C7.20204 8.43398 7.34093 8.37843 7.46315 8.26732C7.58537 8.15621 7.66315 8.01732 7.69648 7.85065C7.72982 7.66176 7.80493 7.48687 7.92182 7.32598C8.03826 7.16465 8.22982 6.95621 8.49648 6.70065C8.84093 6.37843 9.08271 6.08398 9.22182 5.81732C9.36048 5.55065 9.42982 5.25621 9.42982 4.93398C9.42982 4.36732 9.21604 3.90332 8.78848 3.54198C8.36048 3.1811 7.8076 3.00065 7.12982 3.00065C6.66315 3.00065 6.24937 3.08954 5.88848 3.26732C5.52715 3.4451 5.24648 3.71732 5.04648 4.08398C4.96871 4.22843 4.94093 4.36998 4.96315 4.50865C4.98537 4.64776 5.06315 4.76176 5.19648 4.85065C5.34093 4.93954 5.49937 4.96732 5.67182 4.93398C5.84382 4.90065 5.98537 4.80621 6.09648 4.65065C6.21871 4.48398 6.36604 4.35621 6.53848 4.26732C6.71048 4.17843 6.9076 4.13398 7.12982 4.13398ZM7.06315 13.6673C6.15204 13.6673 5.29093 13.4922 4.47982 13.142C3.66871 12.7922 2.96048 12.3173 2.35515 11.7173C1.74937 11.1173 1.2716 10.4118 0.921818 9.60065C0.571596 8.78954 0.396484 7.92287 0.396484 7.00065C0.396484 6.07843 0.571596 5.21176 0.921818 4.40065C1.2716 3.58954 1.74937 2.88398 2.35515 2.28398C2.96048 1.68398 3.66871 1.20887 4.47982 0.858651C5.29093 0.508873 6.15204 0.333984 7.06315 0.333984C7.99648 0.333984 8.86871 0.508873 9.67982 0.858651C10.4909 1.20887 11.1965 1.68398 11.7965 2.28398C12.3965 2.88398 12.8687 3.58954 13.2132 4.40065C13.5576 5.21176 13.7298 6.07843 13.7298 7.00065C13.7298 7.92287 13.5576 8.78954 13.2132 9.60065C12.8687 10.4118 12.3965 11.1173 11.7965 11.7173C11.1965 12.3173 10.4909 12.7922 9.67982 13.142C8.86871 13.4922 7.99648 13.6673 7.06315 13.6673ZM7.06315 12.334C8.55204 12.334 9.81315 11.8147 10.8465 10.776C11.8798 9.73687 12.3965 8.47843 12.3965 7.00065C12.3965 5.52287 11.8798 4.26443 10.8465 3.22532C9.81315 2.18665 8.55204 1.66732 7.06315 1.66732C5.60759 1.66732 4.35471 2.18665 3.30448 3.22532C2.25471 4.26443 1.72982 5.52287 1.72982 7.00065C1.72982 8.47843 2.25471 9.73687 3.30448 10.776C4.35471 11.8147 5.60759 12.334 7.06315 12.334Z" fill="#66696D"/>
</svg>
