<svg width="58" height="61" viewBox="0 0 58 61" fill="none" xmlns="http://www.w3.org/2000/svg">
<path d="M53.4665 0.484375H4.45554C3.27386 0.484375 2.14058 0.970637 1.305 1.83619C0.469422 2.70174 0 3.87568 0 5.09976V55.869C0 57.0931 0.469422 58.267 1.305 59.1326C2.14058 59.9981 3.27386 60.4844 4.45554 60.4844H53.4665C54.6482 60.4844 55.7815 59.9981 56.6171 59.1326C57.4527 58.267 57.9221 57.0931 57.9221 55.869V5.09976C57.9221 3.87568 57.4527 2.70174 56.6171 1.83619C55.7815 0.970637 54.6482 0.484375 53.4665 0.484375ZM53.4665 55.869H4.45554V5.09976H53.4665V55.869ZM20.0499 25.869V44.3305C20.0499 44.9426 19.8152 45.5295 19.3974 45.9623C18.9797 46.3951 18.413 46.6382 17.8222 46.6382C17.2313 46.6382 16.6647 46.3951 16.2469 45.9623C15.8291 45.5295 15.5944 44.9426 15.5944 44.3305V25.869C15.5944 25.257 15.8291 24.67 16.2469 24.2372C16.6647 23.8044 17.2313 23.5613 17.8222 23.5613C18.413 23.5613 18.9797 23.8044 19.3974 24.2372C19.8152 24.67 20.0499 25.257 20.0499 25.869ZM44.5554 33.9459V44.3305C44.5554 44.9426 44.3207 45.5295 43.9029 45.9623C43.4852 46.3951 42.9185 46.6382 42.3277 46.6382C41.7368 46.6382 41.1702 46.3951 40.7524 45.9623C40.3346 45.5295 40.0999 44.9426 40.0999 44.3305V33.9459C40.0999 32.4158 39.5131 30.9484 38.4687 29.8665C37.4242 28.7845 36.0076 28.1767 34.5305 28.1767C33.0534 28.1767 31.6368 28.7845 30.5923 29.8665C29.5478 30.9484 28.961 32.4158 28.961 33.9459V44.3305C28.961 44.9426 28.7263 45.5295 28.3085 45.9623C27.8907 46.3951 27.3241 46.6382 26.7333 46.6382C26.1424 46.6382 25.5758 46.3951 25.158 45.9623C24.7402 45.5295 24.5055 44.9426 24.5055 44.3305V25.869C24.5083 25.3037 24.7112 24.7592 25.0758 24.3387C25.4405 23.9181 25.9414 23.6508 26.4837 23.5875C27.0259 23.5242 27.5718 23.6692 28.0176 23.9951C28.4635 24.321 28.7784 24.8051 28.9026 25.3555C30.4096 24.2965 32.1667 23.6827 33.9851 23.5801C35.8035 23.4775 37.6145 23.8899 39.2237 24.773C40.8329 25.6562 42.1795 26.9767 43.1189 28.5928C44.0582 30.2089 44.5548 32.0595 44.5554 33.9459ZM21.1638 17.7921C21.1638 18.4767 20.9679 19.1459 20.6007 19.7152C20.2335 20.2844 19.7116 20.7281 19.101 20.9901C18.4904 21.2521 17.8185 21.3207 17.1703 21.1871C16.522 21.0535 15.9266 20.7238 15.4593 20.2397C14.9919 19.7556 14.6737 19.1389 14.5447 18.4674C14.4158 17.7959 14.482 17.0999 14.7349 16.4674C14.9878 15.8349 15.4161 15.2943 15.9657 14.9139C16.5152 14.5335 17.1613 14.3305 17.8222 14.3305C18.7084 14.3305 19.5584 14.6952 20.1851 15.3444C20.8118 15.9936 21.1638 16.874 21.1638 17.7921Z" fill="#004491"/>
</svg>
