<svg width="40" height="40" viewBox="0 0 40 40" fill="none" xmlns="http://www.w3.org/2000/svg">
<path d="M36.3367 0H3.66275C2.87496 0 2.11943 0.324175 1.56238 0.90121C1.00533 1.47824 0.692383 2.26087 0.692383 3.07692V36.9231C0.692383 37.7391 1.00533 38.5218 1.56238 39.0988C2.11943 39.6758 2.87496 40 3.66275 40H36.3367C37.1245 40 37.8801 39.6758 38.4371 39.0988C38.9942 38.5218 39.3071 37.7391 39.3071 36.9231V3.07692C39.3071 2.26087 38.9942 1.47824 38.4371 0.90121C37.8801 0.324175 37.1245 0 36.3367 0ZM36.3367 36.9231H3.66275V3.07692H36.3367V36.9231ZM14.059 16.9231V29.2308C14.059 29.6388 13.9025 30.0301 13.624 30.3186C13.3455 30.6071 12.9677 30.7692 12.5738 30.7692C12.1799 30.7692 11.8022 30.6071 11.5237 30.3186C11.2451 30.0301 11.0887 29.6388 11.0887 29.2308V16.9231C11.0887 16.5151 11.2451 16.1237 11.5237 15.8352C11.8022 15.5467 12.1799 15.3846 12.5738 15.3846C12.9677 15.3846 13.3455 15.5467 13.624 15.8352C13.9025 16.1237 14.059 16.5151 14.059 16.9231ZM30.396 22.3077V29.2308C30.396 29.6388 30.2395 30.0301 29.961 30.3186C29.6825 30.6071 29.3047 30.7692 28.9108 30.7692C28.5169 30.7692 28.1392 30.6071 27.8606 30.3186C27.5821 30.0301 27.4256 29.6388 27.4256 29.2308V22.3077C27.4256 21.2876 27.0345 20.3093 26.3382 19.5881C25.6418 18.8668 24.6974 18.4615 23.7127 18.4615C22.728 18.4615 21.7836 18.8668 21.0872 19.5881C20.3909 20.3093 19.9997 21.2876 19.9997 22.3077V29.2308C19.9997 29.6388 19.8433 30.0301 19.5647 30.3186C19.2862 30.6071 18.9085 30.7692 18.5146 30.7692C18.1207 30.7692 17.7429 30.6071 17.4644 30.3186C17.1859 30.0301 17.0294 29.6388 17.0294 29.2308V16.9231C17.0312 16.5462 17.1665 16.1832 17.4096 15.9029C17.6527 15.6225 17.9867 15.4443 18.3482 15.4021C18.7097 15.3599 19.0736 15.4566 19.3708 15.6738C19.668 15.8911 19.878 16.2138 19.9608 16.5808C20.9655 15.8748 22.1368 15.4656 23.3491 15.3972C24.5614 15.3287 25.7687 15.6037 26.8415 16.1924C27.9143 16.7812 28.812 17.6615 29.4383 18.7389C30.0645 19.8163 30.3956 21.0501 30.396 22.3077ZM14.8016 11.5385C14.8016 11.9949 14.671 12.441 14.4262 12.8205C14.1814 13.2 13.8334 13.4958 13.4264 13.6705C13.0193 13.8452 12.5714 13.8909 12.1392 13.8018C11.7071 13.7128 11.3101 13.493 10.9986 13.1702C10.687 12.8475 10.4748 12.4363 10.3889 11.9887C10.3029 11.541 10.347 11.077 10.5156 10.6553C10.6843 10.2337 10.9698 9.87326 11.3362 9.61969C11.7025 9.36611 12.1332 9.23077 12.5738 9.23077C13.1647 9.23077 13.7313 9.4739 14.1491 9.90668C14.5669 10.3395 14.8016 10.9264 14.8016 11.5385Z" fill="#1F2122"/>
</svg>
