<svg width="58" height="61" viewBox="0 0 58 61" fill="none" xmlns="http://www.w3.org/2000/svg">
<path d="M53.4665 0.485352H4.45554C3.27386 0.485352 2.14058 0.971614 1.305 1.83717C0.469422 2.70272 0 3.87666 0 5.10074V55.87C0 57.094 0.469422 58.268 1.305 59.1335C2.14058 59.9991 3.27386 60.4854 4.45554 60.4854H53.4665C54.6482 60.4854 55.7815 59.9991 56.6171 59.1335C57.4527 58.268 57.9221 57.094 57.9221 55.87V5.10074C57.9221 3.87666 57.4527 2.70272 56.6171 1.83717C55.7815 0.971614 54.6482 0.485352 53.4665 0.485352ZM53.4665 55.87H4.45554V5.10074H53.4665V55.87ZM20.0499 25.87V44.3315C20.0499 44.9435 19.8152 45.5305 19.3974 45.9633C18.9797 46.3961 18.413 46.6392 17.8222 46.6392C17.2313 46.6392 16.6647 46.3961 16.2469 45.9633C15.8291 45.5305 15.5944 44.9435 15.5944 44.3315V25.87C15.5944 25.2579 15.8291 24.671 16.2469 24.2382C16.6647 23.8054 17.2313 23.5623 17.8222 23.5623C18.413 23.5623 18.9797 23.8054 19.3974 24.2382C19.8152 24.671 20.0499 25.2579 20.0499 25.87ZM44.5554 33.9469V44.3315C44.5554 44.9435 44.3207 45.5305 43.9029 45.9633C43.4852 46.3961 42.9185 46.6392 42.3277 46.6392C41.7368 46.6392 41.1702 46.3961 40.7524 45.9633C40.3346 45.5305 40.0999 44.9435 40.0999 44.3315V33.9469C40.0999 32.4168 39.5131 30.9494 38.4687 29.8674C37.4242 28.7855 36.0076 28.1777 34.5305 28.1777C33.0534 28.1777 31.6368 28.7855 30.5923 29.8674C29.5478 30.9494 28.961 32.4168 28.961 33.9469V44.3315C28.961 44.9435 28.7263 45.5305 28.3085 45.9633C27.8907 46.3961 27.3241 46.6392 26.7333 46.6392C26.1424 46.6392 25.5758 46.3961 25.158 45.9633C24.7402 45.5305 24.5055 44.9435 24.5055 44.3315V25.87C24.5083 25.3047 24.7112 24.7602 25.0758 24.3396C25.4405 23.9191 25.9414 23.6518 26.4837 23.5885C27.0259 23.5252 27.5718 23.6702 28.0176 23.9961C28.4635 24.322 28.7784 24.8061 28.9026 25.3565C30.4096 24.2975 32.1667 23.6837 33.9851 23.5811C35.8035 23.4785 37.6145 23.8909 39.2237 24.774C40.8329 25.6571 42.1795 26.9776 43.1189 28.5937C44.0582 30.2098 44.5548 32.0605 44.5554 33.9469ZM21.1638 17.793C21.1638 18.4777 20.9679 19.1469 20.6007 19.7162C20.2335 20.2854 19.7116 20.7291 19.101 20.9911C18.4904 21.2531 17.8185 21.3216 17.1703 21.1881C16.522 21.0545 15.9266 20.7248 15.4593 20.2407C14.9919 19.7566 14.6737 19.1398 14.5447 18.4684C14.4158 17.7969 14.482 17.1009 14.7349 16.4684C14.9878 15.8359 15.4161 15.2952 15.9657 14.9149C16.5152 14.5345 17.1613 14.3315 17.8222 14.3315C18.7084 14.3315 19.5584 14.6962 20.1851 15.3454C20.8118 15.9945 21.1638 16.875 21.1638 17.793Z" fill="#1F2122"/>
</svg>
