<svg width="212" height="65" viewBox="0 0 212 65" fill="none" xmlns="http://www.w3.org/2000/svg">
<path d="M10.464 46.256C7.62667 46.256 5.35467 45.7227 3.648 44.656C1.94133 43.568 1.088 41.9147 1.088 39.696C1.088 38.5227 1.29067 37.6267 1.696 37.008C2.10133 36.3893 2.69867 36.08 3.488 36.08C4.064 36.08 4.53333 36.2293 4.896 36.528C5.25867 36.8267 5.44 37.2107 5.44 37.68C5.44 38.1067 5.408 38.48 5.344 38.8C5.344 38.8853 5.32267 39.0347 5.28 39.248C5.25867 39.4613 5.248 39.6853 5.248 39.92C5.248 40.88 5.728 41.5947 6.688 42.064C7.66933 42.5333 9.03467 42.768 10.784 42.768C12.5973 42.768 14.016 42.448 15.04 41.808C16.064 41.1467 16.576 40.2293 16.576 39.056C16.576 38.3307 16.3413 37.712 15.872 37.2C15.4027 36.6667 14.816 36.2293 14.112 35.888C13.408 35.5253 12.416 35.088 11.136 34.576C9.49333 33.936 8.14933 33.328 7.104 32.752C6.08 32.176 5.19467 31.3973 4.448 30.416C3.72267 29.4133 3.36 28.176 3.36 26.704C3.36 25.168 3.76533 23.8027 4.576 22.608C5.408 21.4133 6.592 20.4853 8.128 19.824C9.68533 19.1627 11.5093 18.832 13.6 18.832C15.1573 18.832 16.5867 19.0667 17.888 19.536C19.1893 19.984 20.224 20.6773 20.992 21.616C21.7813 22.5547 22.176 23.7067 22.176 25.072C22.176 26.416 21.9733 27.4293 21.568 28.112C21.1627 28.7947 20.5653 29.136 19.776 29.136C19.2213 29.136 18.752 28.9653 18.368 28.624C18.0053 28.2827 17.824 27.8773 17.824 27.408C17.824 27.0027 17.856 26.6293 17.92 26.288C17.984 25.648 18.016 25.2427 18.016 25.072C18.016 24.176 17.5787 23.4933 16.704 23.024C15.8293 22.5547 14.7413 22.32 13.44 22.32C11.6053 22.32 10.1973 22.6613 9.216 23.344C8.256 24.0053 7.776 24.944 7.776 26.16C7.776 26.9707 8.02133 27.664 8.512 28.24C9.024 28.816 9.65333 29.296 10.4 29.68C11.1467 30.064 12.192 30.5227 13.536 31.056C15.1573 31.7173 16.4587 32.3147 17.44 32.848C18.4213 33.3813 19.2533 34.1067 19.936 35.024C20.64 35.9413 20.992 37.072 20.992 38.416C20.992 40.9333 20.032 42.8747 18.112 44.24C16.2133 45.584 13.664 46.256 10.464 46.256ZM27.6595 46.16C26.3368 46.16 25.2808 45.68 24.4915 44.72C23.7022 43.76 23.3075 42.5013 23.3075 40.944C23.3075 39.2373 23.7022 37.6267 24.4915 36.112C25.2808 34.576 26.3262 33.3493 27.6275 32.432C28.9502 31.4933 30.3475 31.024 31.8195 31.024C32.2888 31.024 32.5982 31.12 32.7475 31.312C32.9182 31.4827 33.0568 31.8027 33.1635 32.272C33.6115 32.1867 34.0808 32.144 34.5715 32.144C35.6168 32.144 36.1395 32.5173 36.1395 33.264C36.1395 33.712 35.9795 34.7787 35.6595 36.464C35.1688 38.9173 34.9235 40.624 34.9235 41.584C34.9235 41.904 34.9982 42.16 35.1475 42.352C35.3182 42.544 35.5315 42.64 35.7875 42.64C36.1928 42.64 36.6835 42.384 37.2595 41.872C37.8355 41.3387 38.6142 40.4853 39.5955 39.312C39.8515 39.0133 40.1395 38.864 40.4595 38.864C40.7368 38.864 40.9502 38.992 41.0995 39.248C41.2702 39.504 41.3555 39.856 41.3555 40.304C41.3555 41.1573 41.1528 41.8187 40.7475 42.288C39.8728 43.376 38.9448 44.2933 37.9635 45.04C36.9822 45.7867 36.0328 46.16 35.1155 46.16C34.4115 46.16 33.7608 45.9253 33.1635 45.456C32.5875 44.9653 32.1502 44.304 31.8515 43.472C30.7422 45.264 29.3448 46.16 27.6595 46.16ZM28.8115 42.928C29.2808 42.928 29.7288 42.6507 30.1555 42.096C30.5822 41.5413 30.8915 40.8053 31.0835 39.888L32.2675 34C31.3715 34.0213 30.5395 34.3627 29.7715 35.024C29.0248 35.664 28.4275 36.5173 27.9795 37.584C27.5315 38.6507 27.3075 39.7813 27.3075 40.976C27.3075 41.6373 27.4355 42.128 27.6915 42.448C27.9688 42.768 28.3422 42.928 28.8115 42.928ZM60.7068 38.864C60.9841 38.864 61.1974 38.992 61.3468 39.248C61.5174 39.504 61.6028 39.856 61.6028 40.304C61.6028 41.1573 61.4001 41.8187 60.9948 42.288C60.1201 43.3547 59.1494 44.272 58.0828 45.04C57.0374 45.7867 55.9814 46.16 54.9148 46.16C53.5281 46.16 52.5148 45.6693 51.8748 44.688C51.2561 43.7067 50.9468 42.4053 50.9468 40.784C50.9468 39.952 51.0321 38.928 51.2028 37.712C51.3948 36.496 51.6401 35.3013 51.9388 34.128C49.8054 34.128 47.2774 34.224 44.3548 34.416C43.8854 37.4027 43.6508 40.1867 43.6508 42.768C43.6508 44.752 43.7574 46.8213 43.9708 48.976C44.2054 51.152 44.5468 52.24 44.9948 52.24C45.2081 52.24 45.4321 51.8667 45.6667 51.12C45.9014 50.3733 46.0934 49.3493 46.2428 48.048C46.3921 46.7467 46.4668 45.3067 46.4668 43.728C46.4668 42 46.3708 40.1333 46.1788 38.128C46.1361 37.5307 46.2321 37.0933 46.4668 36.816C46.7228 36.5173 47.0961 36.368 47.5868 36.368C48.0348 36.368 48.3654 36.4853 48.5788 36.72C48.7921 36.9547 48.9201 37.3493 48.9628 37.904C49.0694 39.4613 49.1228 41.3173 49.1228 43.472C49.1228 46.9493 48.6961 49.9253 47.8428 52.4C47.0108 54.8747 45.7094 56.112 43.9388 56.112C42.4241 56.112 41.3361 55.0133 40.6748 52.816C40.0134 50.64 39.6828 47.3653 39.6828 42.992C39.6828 40.4107 39.8854 37.648 40.2908 34.704C40.1414 34.7253 39.9494 34.736 39.7148 34.736C39.0534 34.736 38.6054 34.6187 38.3708 34.384C38.1574 34.1493 38.0508 33.7867 38.0508 33.296C38.0508 32.7627 38.1894 32.336 38.4668 32.016C38.7654 31.696 39.3201 31.504 40.1308 31.44C40.2801 31.4187 40.5148 31.408 40.8348 31.408C41.4108 28.528 42.1468 25.9147 43.0428 23.568C43.9388 21.2213 44.9628 19.3653 46.1148 18C47.2668 16.6133 48.4828 15.92 49.7628 15.92C50.7654 15.92 51.5334 16.3147 52.0668 17.104C52.6214 17.872 52.8988 18.864 52.8988 20.08C52.8988 24.368 51.1708 28.016 47.7148 31.024C50.3174 30.9173 52.4188 30.864 54.0188 30.864C54.6161 30.864 55.1068 30.9813 55.4908 31.216C55.8748 31.4293 56.0668 31.856 56.0668 32.496C56.0668 32.9227 55.9921 33.5733 55.8428 34.448C55.7148 35.3227 55.5654 36.1973 55.3948 37.072C55.0108 38.8853 54.8188 40.08 54.8188 40.656C54.8188 41.296 54.9041 41.7867 55.0748 42.128C55.2454 42.4693 55.5334 42.64 55.9388 42.64C56.3014 42.64 56.7601 42.3947 57.3148 41.904C57.8908 41.392 58.7334 40.528 59.8428 39.312C60.0988 39.0133 60.3868 38.864 60.7068 38.864ZM49.1548 18.992C48.6428 18.992 47.9921 20.1013 47.2028 22.32C46.4134 24.5387 45.6988 27.2267 45.0588 30.384C46.1254 29.6373 47.0108 28.7093 47.7148 27.6C48.4401 26.4907 48.9734 25.3493 49.3148 24.176C49.6774 22.9813 49.8588 21.8827 49.8588 20.88C49.8588 19.6213 49.6241 18.992 49.1548 18.992ZM55.3628 28.976C54.4668 28.976 53.7948 28.7733 53.3468 28.368C52.8988 27.9413 52.6748 27.3547 52.6748 26.608C52.6748 25.8613 52.9628 25.2427 53.5388 24.752C54.1361 24.24 54.8721 23.984 55.7468 23.984C56.5361 23.984 57.1761 24.176 57.6668 24.56C58.1574 24.944 58.4028 25.488 58.4028 26.192C58.4028 27.0453 58.1254 27.728 57.5708 28.24C57.0161 28.7307 56.2801 28.976 55.3628 28.976ZM75.3888 38.928C75.6661 38.928 75.8794 39.0667 76.0288 39.344C76.1994 39.6 76.2847 39.9307 76.2847 40.336C76.2847 40.8267 76.2101 41.2107 76.0608 41.488C75.9114 41.7653 75.6768 42.0107 75.3568 42.224L69.2128 46.352C68.4021 50.768 67.3354 54.2347 66.0128 56.752C64.7114 59.2907 63.0474 60.56 61.0208 60.56C59.9328 60.56 59.0474 60.2187 58.3648 59.536C57.6821 58.8747 57.3407 58 57.3407 56.912C57.3407 55.9093 57.5648 54.8853 58.0128 53.84C58.4821 52.7947 59.3354 51.5893 60.5728 50.224C61.8314 48.88 63.6021 47.3333 65.8848 45.584L65.9808 44.848C66.1301 44.0587 66.3008 42.928 66.4928 41.456C66.0661 42.992 65.4688 44.1653 64.7008 44.976C63.9328 45.7653 63.1221 46.16 62.2688 46.16C61.3088 46.16 60.5194 45.7227 59.9008 44.848C59.3034 43.952 59.0048 42.8427 59.0048 41.52C59.0048 39.92 59.1114 38.4587 59.3248 37.136C59.5381 35.792 59.8901 34.3733 60.3808 32.88C60.5941 32.24 60.8928 31.7813 61.2768 31.504C61.6608 31.2267 62.2688 31.088 63.1008 31.088C63.5701 31.088 63.8901 31.1627 64.0608 31.312C64.2528 31.4613 64.3488 31.6853 64.3488 31.984C64.3488 32.1547 64.2314 32.7307 63.9968 33.712C63.7834 34.5013 63.6128 35.216 63.4848 35.856C63.3141 36.7307 63.1648 37.5733 63.0368 38.384C62.9088 39.1733 62.8448 39.824 62.8448 40.336C62.8448 41.1467 63.0688 41.552 63.5168 41.552C63.8368 41.552 64.2314 41.232 64.7008 40.592C65.1914 39.952 65.7034 38.9813 66.2368 37.68C66.7914 36.3787 67.3248 34.7787 67.8368 32.88C68.0074 32.24 68.2634 31.7813 68.6048 31.504C68.9674 31.2267 69.5008 31.088 70.2048 31.088C70.6954 31.088 71.0368 31.152 71.2288 31.28C71.4208 31.408 71.5168 31.6213 71.5168 31.92C71.5168 32.4533 71.2394 34.288 70.6848 37.424L69.8528 42.576C71.4954 41.3387 73.0954 40.208 74.6528 39.184C74.9301 39.0133 75.1754 38.928 75.3888 38.928ZM61.3728 57.456C61.9061 57.456 62.5034 56.8373 63.1648 55.6C63.8261 54.3627 64.4874 52.304 65.1488 49.424C63.5061 50.8107 62.3114 52.0693 61.5648 53.2C60.8394 54.352 60.4768 55.3547 60.4768 56.208C60.4768 56.5707 60.5408 56.8693 60.6688 57.104C60.8181 57.3387 61.0528 57.456 61.3728 57.456ZM90.3575 38.928C90.6348 38.928 90.8482 39.0667 90.9975 39.344C91.1682 39.6 91.2535 39.9307 91.2535 40.336C91.2535 40.8267 91.1788 41.2107 91.0295 41.488C90.8802 41.7653 90.6455 42.0107 90.3255 42.224L84.1815 46.352C83.3708 50.768 82.3042 54.2347 80.9815 56.752C79.6802 59.2907 78.0162 60.56 75.9895 60.56C74.9015 60.56 74.0162 60.2187 73.3335 59.536C72.6508 58.8747 72.3095 58 72.3095 56.912C72.3095 55.9093 72.5335 54.8853 72.9815 53.84C73.4508 52.7947 74.3042 51.5893 75.5415 50.224C76.8002 48.88 78.5708 47.3333 80.8535 45.584L80.9495 44.848C81.0988 44.0587 81.2695 42.928 81.4615 41.456C81.0348 42.992 80.4375 44.1653 79.6695 44.976C78.9015 45.7653 78.0908 46.16 77.2375 46.16C76.2775 46.16 75.4882 45.7227 74.8695 44.848C74.2722 43.952 73.9735 42.8427 73.9735 41.52C73.9735 39.92 74.0802 38.4587 74.2935 37.136C74.5068 35.792 74.8588 34.3733 75.3495 32.88C75.5628 32.24 75.8615 31.7813 76.2455 31.504C76.6295 31.2267 77.2375 31.088 78.0695 31.088C78.5388 31.088 78.8588 31.1627 79.0295 31.312C79.2215 31.4613 79.3175 31.6853 79.3175 31.984C79.3175 32.1547 79.2002 32.7307 78.9655 33.712C78.7522 34.5013 78.5815 35.216 78.4535 35.856C78.2828 36.7307 78.1335 37.5733 78.0055 38.384C77.8775 39.1733 77.8135 39.824 77.8135 40.336C77.8135 41.1467 78.0375 41.552 78.4855 41.552C78.8055 41.552 79.2002 41.232 79.6695 40.592C80.1602 39.952 80.6722 38.9813 81.2055 37.68C81.7602 36.3787 82.2935 34.7787 82.8055 32.88C82.9762 32.24 83.2322 31.7813 83.5735 31.504C83.9362 31.2267 84.4695 31.088 85.1735 31.088C85.6642 31.088 86.0055 31.152 86.1975 31.28C86.3895 31.408 86.4855 31.6213 86.4855 31.92C86.4855 32.4533 86.2082 34.288 85.6535 37.424L84.8215 42.576C86.4642 41.3387 88.0642 40.208 89.6215 39.184C89.8988 39.0133 90.1442 38.928 90.3575 38.928ZM76.3415 57.456C76.8748 57.456 77.4722 56.8373 78.1335 55.6C78.7948 54.3627 79.4562 52.304 80.1175 49.424C78.4748 50.8107 77.2802 52.0693 76.5335 53.2C75.8082 54.352 75.4455 55.3547 75.4455 56.208C75.4455 56.5707 75.5095 56.8693 75.6375 57.104C75.7868 57.3387 76.0215 57.456 76.3415 57.456ZM92.9095 46.16C91.5868 46.16 90.5308 45.68 89.7415 44.72C88.9522 43.76 88.5575 42.5013 88.5575 40.944C88.5575 39.2373 88.9522 37.6267 89.7415 36.112C90.5308 34.576 91.5762 33.3493 92.8775 32.432C94.2002 31.4933 95.5975 31.024 97.0695 31.024C97.5388 31.024 97.8482 31.12 97.9975 31.312C98.1682 31.4827 98.3068 31.8027 98.4135 32.272C98.8615 32.1867 99.3308 32.144 99.8215 32.144C100.867 32.144 101.39 32.5173 101.39 33.264C101.39 33.712 101.23 34.7787 100.91 36.464C100.419 38.9173 100.174 40.624 100.174 41.584C100.174 41.904 100.248 42.16 100.398 42.352C100.568 42.544 100.782 42.64 101.038 42.64C101.443 42.64 101.934 42.384 102.51 41.872C103.086 41.3387 103.864 40.4853 104.846 39.312C105.102 39.0133 105.39 38.864 105.71 38.864C105.987 38.864 106.2 38.992 106.35 39.248C106.52 39.504 106.606 39.856 106.606 40.304C106.606 41.1573 106.403 41.8187 105.998 42.288C105.123 43.376 104.195 44.2933 103.214 45.04C102.232 45.7867 101.283 46.16 100.366 46.16C99.6615 46.16 99.0108 45.9253 98.4135 45.456C97.8375 44.9653 97.4002 44.304 97.1015 43.472C95.9922 45.264 94.5948 46.16 92.9095 46.16ZM94.0615 42.928C94.5308 42.928 94.9788 42.6507 95.4055 42.096C95.8322 41.5413 96.1415 40.8053 96.3335 39.888L97.5175 34C96.6215 34.0213 95.7895 34.3627 95.0215 35.024C94.2748 35.664 93.6775 36.5173 93.2295 37.584C92.7815 38.6507 92.5575 39.7813 92.5575 40.976C92.5575 41.6373 92.6855 42.128 92.9415 42.448C93.2188 42.768 93.5922 42.928 94.0615 42.928ZM115.333 31.088C116.015 31.088 116.527 31.2693 116.869 31.632C117.231 31.9733 117.413 32.4853 117.413 33.168C117.413 33.7227 117.295 34.768 117.061 36.304C116.847 37.6053 116.677 38.8427 116.549 40.016C116.421 41.168 116.357 42.4587 116.357 43.888C116.357 44.6987 116.186 45.2853 115.845 45.648C115.525 45.9893 114.991 46.16 114.245 46.16C113.541 46.16 113.029 45.9787 112.709 45.616C112.389 45.2533 112.229 44.7093 112.229 43.984C112.229 43.1307 112.378 41.7227 112.677 39.76C112.933 38.0533 113.061 36.9653 113.061 36.496C113.061 36.1547 112.943 35.984 112.709 35.984C112.431 35.984 112.037 36.3467 111.525 37.072C111.013 37.776 110.501 38.7147 109.989 39.888C109.477 41.0613 109.061 42.2987 108.741 43.6C108.506 44.6027 108.229 45.2853 107.909 45.648C107.61 45.9893 107.13 46.16 106.469 46.16C105.807 46.16 105.317 45.9253 104.997 45.456C104.698 44.9653 104.495 44.2187 104.389 43.216C104.282 42.2133 104.229 40.7413 104.229 38.8C104.229 35.5147 104.559 32.0907 105.221 28.528C105.903 24.9653 106.895 21.9787 108.197 19.568C109.519 17.136 111.098 15.92 112.933 15.92C113.914 15.92 114.703 16.3467 115.301 17.2C115.919 18.032 116.229 19.12 116.229 20.464C116.229 22.6187 115.599 24.8587 114.341 27.184C113.082 29.488 111.034 32.1867 108.197 35.28C108.133 36.3893 108.101 37.5307 108.101 38.704C108.805 36.8907 109.583 35.4187 110.437 34.288C111.311 33.136 112.165 32.3147 112.997 31.824C113.85 31.3333 114.629 31.088 115.333 31.088ZM112.261 19.088C111.877 19.088 111.45 19.6427 110.981 20.752C110.511 21.84 110.053 23.3227 109.605 25.2C109.178 27.056 108.826 29.0827 108.549 31.28C109.871 29.7227 110.959 28.0267 111.813 26.192C112.687 24.3573 113.125 22.6933 113.125 21.2C113.125 20.5173 113.05 19.9947 112.901 19.632C112.751 19.2693 112.538 19.088 112.261 19.088Z" fill="#1F2122"/>
<path d="M155.676 46.0736C163.035 49.6266 172.827 47.4084 176.177 40.2605C178.547 35.2017 171.121 31.1717 167.33 32.0895C164.469 32.7822 162.766 36.5636 160.92 35.1597C159.501 29.8407 156.984 22.9265 147.278 21.1055C144.113 20.5118 139.529 21.596 142.35 25.3722C144.474 28.2149 147.603 29.5974 150.766 31.0647C151.718 31.5071 152.466 32.5763 153.486 32.858C153.729 32.9249 154.257 32.751 154.228 33.0006C154.165 33.5357 144.084 28.3965 143.218 31.9247C142.593 34.4726 149.863 35.9312 151.403 36.2265C151.5 36.245 152.154 36.2874 152.144 36.3689C152.093 36.8066 146.349 35.8049 145.382 37.8689C144.088 40.6278 148.925 40.8648 150.414 40.7079C151.658 40.5764 152.921 40.542 154.133 40.3157C154.173 40.3083 156.122 40.0995 152.384 40.8153C149.073 41.4492 140.571 43.0634 140.344 44.373C140.117 45.6827 141.256 46.0523 141.891 47.2334C142.525 48.4143 142.977 48.6501 143.64 49.2576C144.303 49.865 148.412 43.871 152.807 45.3372M175.512 34.9961C179.218 36.459 179.888 34.9106 176.496 36.9965M170.799 36.501C170.766 36.4116 170.734 36.3219 170.701 36.2322" stroke="black" stroke-opacity="0.9" stroke-width="2.4" stroke-linecap="round" stroke-linejoin="round"/>
</svg>
