<svg width="42" height="42" viewBox="0 0 42 42" fill="none" xmlns="http://www.w3.org/2000/svg">
<path d="M15.7915 15.4225V26.5684C15.7915 27.4017 16.1561 28.0093 16.8853 28.3913C17.6144 28.7732 18.3262 28.7385 19.0207 28.2871L27.6665 22.7663C28.3262 22.3843 28.6561 21.7941 28.6561 20.9954C28.6561 20.1968 28.3262 19.6066 27.6665 19.2246L19.0207 13.7038C18.3262 13.2524 17.6144 13.2177 16.8853 13.5996C16.1561 13.9816 15.7915 14.5892 15.7915 15.4225ZM20.9998 41.8288C18.1179 41.8288 15.4096 41.2816 12.8748 40.1871C10.3401 39.0941 8.13525 37.61 6.26025 35.735C4.38525 33.86 2.90123 31.6552 1.80817 29.1204C0.713726 26.5857 0.166504 23.8774 0.166504 20.9954C0.166504 18.1135 0.713726 15.4052 1.80817 12.8704C2.90123 10.3357 4.38525 8.13086 6.26025 6.25586C8.13525 4.38086 10.3401 2.89614 12.8748 1.80169C15.4096 0.708637 18.1179 0.162109 20.9998 0.162109C23.8818 0.162109 26.5901 0.708637 29.1248 1.80169C31.6596 2.89614 33.8644 4.38086 35.7394 6.25586C37.6144 8.13086 39.0984 10.3357 40.1915 12.8704C41.2859 15.4052 41.8332 18.1135 41.8332 20.9954C41.8332 23.8774 41.2859 26.5857 40.1915 29.1204C39.0984 31.6552 37.6144 33.86 35.7394 35.735C33.8644 37.61 31.6596 39.0941 29.1248 40.1871C26.5901 41.2816 23.8818 41.8288 20.9998 41.8288ZM20.9998 37.6621C25.6179 37.6621 29.5505 36.0392 32.7978 32.7934C36.0436 29.5461 37.6665 25.6135 37.6665 20.9954C37.6665 16.3774 36.0436 12.4447 32.7978 9.19753C29.5505 5.95169 25.6179 4.32878 20.9998 4.32878C16.3818 4.32878 12.4498 5.95169 9.204 9.19753C5.95678 12.4447 4.33317 16.3774 4.33317 20.9954C4.33317 25.6135 5.95678 29.5461 9.204 32.7934C12.4498 36.0392 16.3818 37.6621 20.9998 37.6621Z" fill="white"/>
</svg>
