<svg width="116" height="27" viewBox="0 0 116 27" fill="none" xmlns="http://www.w3.org/2000/svg">
<path d="M36.3074 4.93531C35.8851 3.36691 34.6485 2.13029 33.0801 1.70803C30.2148 0.923828 18.7534 0.923828 18.7534 0.923828C18.7534 0.923828 7.29198 0.923828 4.42664 1.67787C2.8884 2.10013 1.62161 3.36691 1.19935 4.93531C0.445312 7.80066 0.445312 13.7425 0.445312 13.7425C0.445312 13.7425 0.445312 19.7145 1.19935 22.5497C1.62161 24.1181 2.85824 25.3547 4.42664 25.7769C7.32215 26.5611 18.7534 26.5611 18.7534 26.5611C18.7534 26.5611 30.2148 26.5611 33.0801 25.8071C34.6485 25.3848 35.8851 24.1482 36.3074 22.5798C37.0614 19.7145 37.0614 13.7726 37.0614 13.7726C37.0614 13.7726 37.0916 7.80066 36.3074 4.93531Z" fill="#FF0000"/>
<path d="M15.1016 19.2327L24.6326 13.7433L15.1016 8.25391V19.2327Z" fill="#F7F7FB"/>
<path d="M53.6201 24.2697C52.8962 23.7871 52.3835 23.0331 52.0818 21.9774C51.7802 20.952 51.6294 19.5645 51.6294 17.8755V15.553C51.6294 13.8338 51.8104 12.4464 52.1422 11.3907C52.5041 10.3351 53.047 9.58105 53.7709 9.09846C54.5249 8.61588 55.4901 8.37458 56.6966 8.37458C57.8729 8.37458 58.838 8.61588 59.5619 9.09846C60.2858 9.58105 60.7985 10.3652 61.1303 11.3907C61.4621 12.4162 61.643 13.8037 61.643 15.553V17.8755C61.643 19.5947 61.4922 20.952 61.1605 22.0076C60.8287 23.0331 60.3159 23.8173 59.5921 24.2999C58.8682 24.7825 57.8729 25.0238 56.6362 25.0238C55.3694 24.9936 54.344 24.7523 53.6201 24.2697ZM57.6919 21.7362C57.903 21.2234 57.9935 20.3487 57.9935 19.1724V14.1656C57.9935 13.0195 57.903 12.1749 57.6919 11.632C57.4808 11.0891 57.149 10.8478 56.6362 10.8478C56.1536 10.8478 55.7917 11.1193 55.6107 11.632C55.3996 12.1749 55.3091 13.0195 55.3091 14.1656V19.1724C55.3091 20.3487 55.3996 21.2234 55.6107 21.7362C55.7917 22.2489 56.1536 22.5203 56.6664 22.5203C57.149 22.5203 57.4808 22.2791 57.6919 21.7362ZM109.298 17.9056V18.72C109.298 19.7455 109.328 20.5297 109.389 21.0424C109.449 21.5552 109.57 21.9473 109.781 22.1584C109.962 22.3997 110.263 22.5203 110.686 22.5203C111.229 22.5203 111.591 22.3092 111.802 21.887C112.013 21.4647 112.103 20.771 112.133 19.7757L115.24 19.9566C115.27 20.1074 115.27 20.2884 115.27 20.5297C115.27 22.0076 114.878 23.1236 114.064 23.8475C113.249 24.5713 112.103 24.9333 110.625 24.9333C108.846 24.9333 107.609 24.3602 106.885 23.2442C106.161 22.1283 105.8 20.409 105.8 18.0564V15.2514C105.8 12.8385 106.161 11.0891 106.916 9.97315C107.67 8.85717 108.936 8.31426 110.716 8.31426C111.953 8.31426 112.918 8.55555 113.581 9.00798C114.245 9.4604 114.697 10.1843 114.969 11.1193C115.24 12.0845 115.361 13.4116 115.361 15.1006V17.8453H109.298V17.9056ZM109.751 11.1494C109.57 11.3907 109.449 11.7527 109.389 12.2654C109.328 12.7782 109.298 13.5624 109.298 14.618V15.7642H111.953V14.618C111.953 13.5925 111.922 12.8083 111.862 12.2654C111.802 11.7225 111.651 11.3606 111.47 11.1494C111.289 10.9383 110.987 10.8177 110.625 10.8177C110.203 10.7875 109.932 10.9082 109.751 11.1494ZM44.8129 17.604L40.7109 2.73438H44.3002L45.7479 9.4604C46.1099 11.1193 46.3813 12.5369 46.5623 13.7132H46.6528C46.7734 12.8687 47.0449 11.4812 47.4671 9.49056L48.9752 2.73438H52.5644L48.4021 17.604V24.7221H44.8431V17.604H44.8129ZM73.3156 8.6762V24.7523H70.4804L70.1788 22.7918H70.0883C69.3342 24.2697 68.1579 25.0238 66.6197 25.0238C65.564 25.0238 64.7799 24.6618 64.2671 23.9681C63.7544 23.2744 63.5131 22.1886 63.5131 20.6805V8.6762H67.1325V20.4694C67.1325 21.1932 67.2229 21.706 67.3737 22.0076C67.5245 22.3092 67.796 22.46 68.1579 22.46C68.4596 22.46 68.7612 22.3695 69.0628 22.1584C69.3644 21.9774 69.5755 21.7362 69.6962 21.4345V8.6762H73.3156ZM91.8649 8.6762V24.7523H89.0297L88.7281 22.7918H88.6376C87.8836 24.2697 86.7073 25.0238 85.1691 25.0238C84.1134 25.0238 83.3292 24.6618 82.8165 23.9681C82.3037 23.2744 82.0624 22.1886 82.0624 20.6805V8.6762H85.6818V20.4694C85.6818 21.1932 85.7723 21.706 85.9231 22.0076C86.0739 22.3092 86.3454 22.46 86.7073 22.46C87.0089 22.46 87.3105 22.3695 87.6121 22.1584C87.9138 21.9774 88.1249 21.7362 88.2455 21.4345V8.6762H91.8649Z" fill="#170F49"/>
<path d="M83.1488 5.65995H79.5595V24.7221H76.0306V5.65995H72.4414V2.73428H83.1488V5.65995ZM103.84 11.2398C103.628 10.2143 103.267 9.49047 102.784 9.03805C102.301 8.58562 101.608 8.34433 100.763 8.34433C100.1 8.34433 99.4662 8.5253 98.8931 8.9174C98.32 9.27934 97.8676 9.79209 97.566 10.3953H97.5358V1.91992H94.0371V24.7221H97.0231L97.385 23.214H97.4755C97.747 23.7569 98.1692 24.1791 98.7423 24.5109C99.3153 24.8125 99.9186 24.9935 100.612 24.9935C101.849 24.9935 102.724 24.4204 103.297 23.3045C103.87 22.1885 104.171 20.409 104.171 18.0262V15.4926C104.141 13.6528 104.051 12.2352 103.84 11.2398ZM100.522 17.7849C100.522 18.9612 100.461 19.866 100.371 20.5296C100.281 21.1932 100.1 21.6757 99.8884 21.9472C99.6471 22.2186 99.3455 22.3694 98.9836 22.3694C98.682 22.3694 98.4105 22.3091 98.1692 22.1583C97.9279 22.0075 97.7168 21.7964 97.566 21.5249V12.4161C97.6866 11.9939 97.8978 11.6319 98.1994 11.3303C98.501 11.0589 98.8328 10.9081 99.1645 10.9081C99.5265 10.9081 99.8281 11.0589 100.009 11.3303C100.22 11.6319 100.341 12.1145 100.431 12.7781C100.522 13.4718 100.552 14.437 100.552 15.6736V17.7849H100.522Z" fill="#170F49"/>
</svg>
