<svg width="142" height="35" viewBox="0 0 142 35" fill="none" xmlns="http://www.w3.org/2000/svg">
<path d="M55.6953 12.9159H60.1668V26.9609H55.6953V12.9159Z" fill="#CC1F27"/>
<path d="M61.1016 12.9159H65.4084V14.8361H65.4906C66.533 13.3273 67.8771 12.5045 69.8249 12.5045C72.8971 12.5045 74.7076 14.699 74.7076 17.8262V26.9609H70.2363V18.7315C70.2363 17.2501 69.4957 16.2351 68.0418 16.2351C66.5605 16.2351 65.5729 17.4696 65.5729 19.1977V26.9609H61.1016V12.9159Z" fill="#CC1F27"/>
<path d="M60.6124 9.15782C60.6124 7.67642 59.4115 6.47566 57.9302 6.47566C56.4489 6.47566 55.248 7.67642 55.248 9.15782C55.248 10.6391 56.4489 11.8398 57.9302 11.8398C59.4115 11.8398 60.6124 10.6391 60.6124 9.15782Z" fill="#CC1F27"/>
<path d="M106.155 12.7132C106.027 12.7017 105.881 12.6966 105.71 12.6966C104.009 12.6966 102.857 13.4372 101.869 15.1106H101.787V12.9161H97.5078V26.9609H101.979V20.6517C101.979 17.7284 103.598 16.3737 106.155 16.6101V12.7132Z" fill="#CC1F27"/>
<path d="M128.096 18.101C126.313 17.7719 124.722 17.6348 124.722 16.6473C124.722 15.7693 125.573 15.3579 126.67 15.3579C127.904 15.3579 128.755 15.7419 128.919 17.0039H133.034C132.815 14.2333 130.675 12.505 126.697 12.505C123.378 12.505 120.635 14.0412 120.635 17.0039C120.635 20.2955 123.241 20.9539 125.682 21.3655C127.548 21.6947 129.248 21.8318 129.248 23.0936C129.248 23.9989 128.398 24.4927 127.054 24.4927C125.705 24.4927 124.813 23.9221 124.54 22.7645H120.279C120.593 25.6518 123.127 27.4004 127.081 27.4004C130.757 27.4004 133.473 25.8094 133.473 22.7371C133.473 19.1434 130.565 18.5125 128.096 18.101Z" fill="#CC1F27"/>
<path d="M113.092 15.6871C114.546 15.6871 115.588 16.7569 115.753 18.4304H110.211C110.513 16.7569 111.391 15.6871 113.092 15.6871ZM113.339 24.1634C111.501 24.1634 110.458 22.9839 110.184 21.0911H120.279C120.306 18.2383 119.483 15.7968 117.81 14.2607C116.603 13.1635 115.012 12.5051 113.009 12.5051C108.73 12.5051 105.795 15.7145 105.795 19.9117C105.795 24.1634 108.648 27.373 113.284 27.373C115.067 27.373 116.493 26.9067 117.673 26.0837C118.907 25.2334 119.73 24.0264 120.032 22.7646H115.67C115.286 23.6424 114.518 24.1634 113.339 24.1634Z" fill="#CC1F27"/>
<path d="M141.345 23.6485C141.138 23.6567 140.86 23.6687 140.604 23.6687C139.644 23.6687 139.041 23.3943 139.041 22.2971V15.7134H141.345V12.9154H139.041V8.47152H134.679V12.9154H133.307V15.7134H134.679V23.2572C134.679 26.2748 136.544 27.125 139.15 27.125C140.145 27.125 140.896 27.0505 141.345 26.963V23.6485Z" fill="#CC1F27"/>
<path d="M82.6906 23.6549C82.5123 23.6618 82.3063 23.6687 82.114 23.6687C81.154 23.6687 80.5504 23.3943 80.5504 22.2971V15.7134H82.6906V12.9154H80.5504V8.47152H76.1888V12.9154H74.7344V15.7134H76.1888V23.2572C76.1888 26.2748 78.0541 27.125 80.6601 27.125C81.5419 27.125 82.2323 27.0663 82.6906 26.992V23.6549Z" fill="#CC1F27"/>
<path d="M92.4323 18.4304C92.2678 16.7571 91.2252 15.6871 89.7713 15.6871C88.0706 15.6871 87.1928 16.7571 86.891 18.4304H92.4323ZM82.4746 19.9117C82.4746 15.7146 85.4097 12.5052 89.6891 12.5052C91.6915 12.5052 93.2827 13.1635 94.4897 14.2607C96.163 15.7969 96.9858 18.2383 96.9584 21.0912H86.8637C87.1379 22.9839 88.1803 24.1635 90.0183 24.1635C91.1978 24.1635 91.966 23.6424 92.3498 22.7646H96.7116C96.4097 24.0264 95.5869 25.2334 94.3524 26.0839C93.1729 26.9067 91.7465 27.373 89.9634 27.373C85.3274 27.373 82.4746 24.1635 82.4746 19.9117Z" fill="#CC1F27"/>
<path d="M47.9306 16.5644C49.6863 16.5644 50.6738 15.522 50.6738 13.9582C50.6738 12.3948 49.6587 11.4347 47.9306 11.4347H44.5014V16.5644H47.9306ZM39.9746 7.34735H47.7393C50.1258 7.34735 51.8815 8.00564 53.0884 9.15783C54.3504 10.3373 55.0636 12.0108 55.0636 13.9858C55.0636 17.7439 52.4575 20.4049 48.425 20.4049H44.5014V26.9609H39.9746V7.34735Z" fill="#CC1F27"/>
<path d="M33.8377 17.7433C33.8377 27.0667 26.2795 34.625 16.956 34.625C7.63248 34.625 0.0742188 27.0667 0.0742188 17.7433C0.0742188 8.41963 7.63248 0.861504 16.956 0.861504C26.2795 0.861504 33.8377 8.41963 33.8377 17.7433Z" fill="#F7F7FB"/>
<path d="M16.956 0.861504C7.63248 0.861504 0.0742188 8.41977 0.0742188 17.7433C0.0742188 24.8952 4.52396 31.0092 10.8038 33.4689C10.6563 32.1333 10.5229 30.0791 10.8624 28.6209C11.1692 27.3034 12.8419 20.2296 12.8419 20.2296C12.8419 20.2296 12.337 19.2183 12.337 17.7232C12.337 15.3758 13.6976 13.6233 15.3917 13.6233C16.832 13.6233 17.5276 14.7046 17.5276 16.0013C17.5276 17.4497 16.6054 19.6153 16.1295 21.6222C15.7318 23.3024 16.9722 24.6727 18.6294 24.6727C21.6299 24.6727 23.9363 21.509 23.9363 16.9421C23.9363 12.9001 21.0319 10.074 16.8847 10.074C12.0813 10.074 9.26181 13.6768 9.26181 17.4002C9.26181 18.8512 9.82075 20.407 10.5182 21.2528C10.6562 21.42 10.6764 21.5664 10.6353 21.737C10.5071 22.2702 10.2223 23.4169 10.1664 23.6516C10.0928 23.9606 9.92177 24.0262 9.60182 23.8773C7.4934 22.8958 6.17516 19.8132 6.17516 17.3372C6.17516 12.0119 10.0444 7.12131 17.3296 7.12131C23.1859 7.12131 27.7369 11.2944 27.7369 16.8714C27.7369 22.6895 24.0685 27.3719 18.9768 27.3719C17.2661 27.3719 15.6579 26.4832 15.1074 25.4334C15.1074 25.4334 14.2609 28.6566 14.0557 29.4465C13.6746 30.9128 12.6457 32.7509 11.9575 33.8722C13.5371 34.3612 15.2157 34.625 16.956 34.625C26.2796 34.625 33.8379 27.0667 33.8379 17.7433C33.8379 8.41977 26.2796 0.861504 16.956 0.861504Z" fill="#CC1F27"/>
</svg>
