<svg width="114" height="38" viewBox="0 0 114 38" fill="none" xmlns="http://www.w3.org/2000/svg">
<path d="M48.7957 19.7272C48.7957 25.1201 44.5769 29.094 39.3993 29.094C34.2218 29.094 30.0029 25.1201 30.0029 19.7272C30.0029 14.2963 34.2218 10.3604 39.3993 10.3604C44.5769 10.3604 48.7957 14.2963 48.7957 19.7272ZM44.6824 19.7272C44.6824 16.3572 42.2373 14.0513 39.3993 14.0513C36.5614 14.0513 34.1162 16.3572 34.1162 19.7272C34.1162 23.0634 36.5614 25.403 39.3993 25.403C42.2373 25.403 44.6824 23.0592 44.6824 19.7272Z" fill="#1F2122"/>
<path d="M69.0662 19.7272C69.0662 25.1201 64.8474 29.094 59.6698 29.094C54.4923 29.094 50.2734 25.1201 50.2734 19.7272C50.2734 14.3005 54.4923 10.3604 59.6698 10.3604C64.8474 10.3604 69.0662 14.2963 69.0662 19.7272ZM64.9529 19.7272C64.9529 16.3572 62.5078 14.0513 59.6698 14.0513C56.8319 14.0513 54.3867 16.3572 54.3867 19.7272C54.3867 23.0634 56.8319 25.403 59.6698 25.403C62.5078 25.403 64.9529 23.0592 64.9529 19.7272Z" fill="#1F2122"/>
<path d="M88.4928 10.9262V27.7426C88.4928 34.6601 84.4133 37.4853 79.5905 37.4853C75.0506 37.4853 72.3183 34.4489 71.2878 31.9658L74.869 30.475C75.5067 31.9995 77.0693 33.7986 79.5862 33.7986C82.6733 33.7986 84.5864 31.894 84.5864 28.3085V26.9614H84.4428C83.5222 28.0974 81.7485 29.0898 79.5102 29.0898C74.8268 29.0898 70.5361 25.0103 70.5361 19.761C70.5361 14.4737 74.8268 10.3604 79.5102 10.3604C81.7443 10.3604 83.518 11.3528 84.4428 12.455H84.5864V10.9305H88.4928V10.9262ZM84.8778 19.761C84.8778 16.4627 82.6776 14.0513 79.8776 14.0513C77.0397 14.0513 74.6621 16.4627 74.6621 19.761C74.6621 23.0254 77.0397 25.403 79.8776 25.403C82.6776 25.403 84.8778 23.0254 84.8778 19.761Z" fill="#1F2122"/>
<path d="M94.9328 1.06921V28.5194H90.9209V1.06921H94.9328Z" fill="#1F2122"/>
<path d="M110.567 22.8098L113.76 24.9382C112.729 26.4628 110.246 29.0895 105.955 29.0895C100.634 29.0895 96.6602 24.9762 96.6602 19.7227C96.6602 14.1524 100.668 10.3558 105.495 10.3558C110.356 10.3558 112.733 14.2242 113.51 16.3146L113.937 17.3789L101.415 22.5648C102.374 24.4441 103.865 25.4028 105.955 25.4028C108.05 25.4028 109.503 24.3723 110.567 22.8098ZM100.74 19.4397L109.11 15.9641C108.65 14.7943 107.264 13.9793 105.634 13.9793C103.544 13.9793 100.634 15.8248 100.74 19.4397Z" fill="#1F2122"/>
<path d="M14.8158 17.2899V13.3159H28.2072C28.3381 14.0085 28.4057 14.8278 28.4057 15.7147C28.4057 18.6962 27.5906 22.3829 24.9639 25.0097C22.4089 27.6703 19.1444 29.0892 14.82 29.0892C6.80453 29.0892 0.0644531 22.5603 0.0644531 14.5449C0.0644531 6.52941 6.80453 0.000488281 14.82 0.000488281C19.2542 0.000488281 22.4131 1.74041 24.7865 4.00821L21.9824 6.81235C20.2805 5.21602 17.9746 3.97443 14.8158 3.97443C8.96253 3.97443 4.38469 8.69164 4.38469 14.5449C4.38469 20.3981 8.96253 25.1153 14.8158 25.1153C18.6123 25.1153 20.7746 23.5907 22.1597 22.2056C23.2831 21.0822 24.0221 19.4774 24.3135 17.2857L14.8158 17.2899Z" fill="#1F2122"/>
</svg>
