<svg width="116" height="27" viewBox="0 0 116 27" fill="none" xmlns="http://www.w3.org/2000/svg">
<path d="M36.3084 4.9358C35.8861 3.3674 34.6495 2.13078 33.0811 1.70852C30.2157 0.924316 18.7544 0.924316 18.7544 0.924316C18.7544 0.924316 7.29296 0.924316 4.42761 1.67836C2.88937 2.10062 1.62259 3.3674 1.20033 4.9358C0.446289 7.80115 0.446289 13.743 0.446289 13.743C0.446289 13.743 0.446289 19.715 1.20033 22.5501C1.62259 24.1185 2.85921 25.3552 4.42761 25.7774C7.32312 26.5616 18.7544 26.5616 18.7544 26.5616C18.7544 26.5616 30.2157 26.5616 33.0811 25.8076C34.6495 25.3853 35.8861 24.1487 36.3084 22.5803C37.0624 19.715 37.0624 13.7731 37.0624 13.7731C37.0624 13.7731 37.0926 7.80115 36.3084 4.9358Z" fill="#1F2122"/>
<path d="M15.1025 19.2323L24.6336 13.7429L15.1025 8.25354V19.2323Z" fill="#F7F7FB"/>
<path d="M53.622 24.2692C52.8982 23.7866 52.3854 23.0326 52.0838 21.977C51.7822 20.9515 51.6314 19.564 51.6314 17.875V15.5525C51.6314 13.8333 51.8123 12.4459 52.1441 11.3903C52.5061 10.3346 53.049 9.58056 53.7728 9.09797C54.5269 8.61539 55.492 8.3741 56.6985 8.3741C57.8748 8.3741 58.84 8.61539 59.5639 9.09797C60.2877 9.58056 60.8005 10.3648 61.1323 11.3903C61.464 12.4157 61.645 13.8032 61.645 15.5525V17.875C61.645 19.5942 61.4942 20.9515 61.1624 22.0071C60.8306 23.0326 60.3179 23.8168 59.594 24.2994C58.8701 24.782 57.8748 25.0233 56.6382 25.0233C55.3714 24.9931 54.3459 24.7518 53.622 24.2692ZM57.6938 21.7357C57.905 21.2229 57.9955 20.3482 57.9955 19.1719V14.1651C57.9955 13.019 57.905 12.1745 57.6938 11.6315C57.4827 11.0886 57.1509 10.8473 56.6382 10.8473C56.1556 10.8473 55.7937 11.1188 55.6127 11.6315C55.4016 12.1745 55.3111 13.019 55.3111 14.1651V19.1719C55.3111 20.3482 55.4016 21.2229 55.6127 21.7357C55.7937 22.2484 56.1556 22.5199 56.6683 22.5199C57.1509 22.5199 57.4827 22.2786 57.6938 21.7357ZM109.3 17.9051V18.7195C109.3 19.745 109.33 20.5292 109.391 21.0419C109.451 21.5547 109.572 21.9468 109.783 22.1579C109.964 22.3992 110.265 22.5199 110.688 22.5199C111.231 22.5199 111.593 22.3087 111.804 21.8865C112.015 21.4642 112.105 20.7705 112.135 19.7752L115.242 19.9561C115.272 20.1069 115.272 20.2879 115.272 20.5292C115.272 22.0071 114.88 23.1231 114.066 23.847C113.251 24.5708 112.105 24.9328 110.627 24.9328C108.848 24.9328 107.611 24.3597 106.887 23.2437C106.163 22.1278 105.801 20.4086 105.801 18.056V15.2509C105.801 12.838 106.163 11.0886 106.917 9.97266C107.672 8.85668 108.938 8.31377 110.718 8.31377C111.954 8.31377 112.92 8.55507 113.583 9.00749C114.247 9.45991 114.699 10.1838 114.971 11.1188C115.242 12.084 115.363 13.4111 115.363 15.1001V17.8448H109.3V17.9051ZM109.753 11.149C109.572 11.3903 109.451 11.7522 109.391 12.2649C109.33 12.7777 109.3 13.5619 109.3 14.6175V15.7637H111.954V14.6175C111.954 13.592 111.924 12.8078 111.864 12.2649C111.804 11.722 111.653 11.3601 111.472 11.149C111.291 10.9378 110.989 10.8172 110.627 10.8172C110.205 10.787 109.934 10.9077 109.753 11.149ZM44.8149 17.6035L40.7129 2.73389H44.3021L45.7499 9.45991C46.1118 11.1188 46.3833 12.5364 46.5642 13.7127H46.6547C46.7754 12.8682 47.0468 11.4807 47.4691 9.49007L48.9772 2.73389H52.5664L48.4041 17.6035V24.7217H44.845V17.6035H44.8149ZM73.3175 8.67571V24.7518H70.4823L70.1807 22.7913H70.0902C69.3362 24.2692 68.1599 25.0233 66.6217 25.0233C65.566 25.0233 64.7818 24.6613 64.2691 23.9676C63.7563 23.2739 63.515 22.1881 63.515 20.68V8.67571H67.1344V20.4689C67.1344 21.1928 67.2249 21.7055 67.3757 22.0071C67.5265 22.3087 67.798 22.4595 68.1599 22.4595C68.4615 22.4595 68.7631 22.3691 69.0647 22.1579C69.3664 21.977 69.5775 21.7357 69.6981 21.434V8.67571H73.3175ZM91.8669 8.67571V24.7518H89.0317L88.7301 22.7913H88.6396C87.8855 24.2692 86.7092 25.0233 85.171 25.0233C84.1154 25.0233 83.3312 24.6613 82.8184 23.9676C82.3057 23.2739 82.0644 22.1881 82.0644 20.68V8.67571H85.6838V20.4689C85.6838 21.1928 85.7742 21.7055 85.925 22.0071C86.0759 22.3087 86.3473 22.4595 86.7092 22.4595C87.0109 22.4595 87.3125 22.3691 87.6141 22.1579C87.9157 21.977 88.1268 21.7357 88.2475 21.434V8.67571H91.8669Z" fill="#1F2122"/>
<path d="M83.1507 5.65947H79.5615V24.7216H76.0326V5.65947H72.4434V2.7338H83.1507V5.65947ZM103.842 11.2394C103.63 10.2139 103.268 9.48998 102.786 9.03756C102.303 8.58514 101.61 8.34384 100.765 8.34384C100.102 8.34384 99.4681 8.52481 98.895 8.91691C98.322 9.27885 97.8695 9.7916 97.5679 10.3948H97.5378V1.91943H94.039V24.7216H97.025L97.387 23.2135H97.4774C97.7489 23.7564 98.1712 24.1787 98.7442 24.5104C99.3173 24.812 99.9205 24.993 100.614 24.993C101.851 24.993 102.726 24.4199 103.299 23.304C103.872 22.188 104.173 20.4085 104.173 18.0257V15.4921C104.143 13.6523 104.053 12.2347 103.842 11.2394ZM100.524 17.7844C100.524 18.9607 100.463 19.8656 100.373 20.5291C100.282 21.1927 100.102 21.6752 99.8904 21.9467C99.6491 22.2182 99.3475 22.369 98.9855 22.369C98.6839 22.369 98.4125 22.3086 98.1712 22.1578C97.9299 22.007 97.7187 21.7959 97.5679 21.5244V12.4157C97.6886 11.9934 97.8997 11.6315 98.2013 11.3298C98.5029 11.0584 98.8347 10.9076 99.1665 10.9076C99.5284 10.9076 99.83 11.0584 100.011 11.3298C100.222 11.6315 100.343 12.114 100.433 12.7776C100.524 13.4713 100.554 14.4365 100.554 15.6731V17.7844H100.524Z" fill="#1F2122"/>
</svg>
