<svg width="136" height="35" viewBox="0 0 136 35" fill="none" xmlns="http://www.w3.org/2000/svg">
<path d="M44.2659 14.0548C44.2659 11.6147 41.9249 9.05562 37.856 9.05562C33.2929 9.05562 28.283 12.4154 27.5159 19.1212C26.732 25.8926 30.9275 28.9015 35.1566 28.9015C39.3856 28.9015 41.6 27.2468 43.8648 25.04C41.9173 22.5846 39.4024 23.7193 38.9205 23.9694C38.1227 24.414 37.2193 24.6338 36.3065 24.6054C34.6746 24.6054 33.0092 23.8703 33.0092 20.811C43.4652 19.7739 44.2644 16.4797 44.2644 14.0548H44.2659ZM39.0837 14.4559C39.0166 15.2078 38.7176 16.495 33.4225 17.2163C34.5359 13.2359 36.671 12.937 37.6516 12.937C37.8503 12.9279 38.0487 12.9617 38.2332 13.0361C38.4177 13.1105 38.5841 13.2237 38.721 13.3681C38.8578 13.5125 38.962 13.6847 39.0264 13.8729C39.0909 14.0611 39.114 14.261 39.0943 14.459L39.0837 14.4559ZM21.3744 15.1087L18.9434 22.7829L17.2277 9.45824C13.3997 9.45824 11.3408 12.2003 10.2672 15.0919L7.30241 22.7997L6.88606 15.1743C6.66035 11.63 3.42411 9.47349 0.808594 9.47349L3.97162 28.7506C7.98259 28.7353 10.1482 26.0085 11.2814 23.1169L13.7886 16.5636C13.8115 16.8305 15.5211 28.7521 15.5211 28.7521C19.5504 28.7521 21.716 26.1945 22.8766 23.4021L28.5194 9.47501C24.5465 9.47501 22.4526 12.2003 21.3713 15.1087H21.3744ZM59.0531 9.00834C56.5718 9.00834 54.6761 10.3626 53.0748 12.3513V12.3361L54.5053 0.75C51.2081 0.75 48.527 3.62631 48.0115 7.9057L45.5317 28.6011C47.4305 28.6011 49.4451 28.049 50.5279 26.6444C51.4948 27.898 52.9421 28.9015 55.091 28.9015C60.6514 28.9015 64.4657 22.4154 64.4657 16.3287C64.4321 10.7774 61.751 9.02359 59.0699 9.02359L59.0531 9.00834ZM58.5346 18.9565C57.9551 22.3498 56.0701 24.6572 54.2567 24.6572C52.4434 24.6572 51.6427 23.8383 51.6427 23.8383C51.9935 20.8643 52.2101 19.0403 52.875 17.468C53.5399 15.8956 55.123 13.3884 56.7716 13.3884C58.3882 13.3884 59.1202 15.5449 58.5361 18.9549L58.5346 18.9565ZM78.3333 9.45976H74.4534L74.4687 9.25845C74.7356 6.71766 75.3349 5.38016 77.3114 5.16207C78.6611 5.02786 79.2605 4.32632 79.41 3.55768L79.8934 0.865907C72.1155 0.815579 69.654 4.19059 69.0272 9.34233L69.0119 9.45976H68.928C67.6622 9.45976 66.2653 10.8979 66.0304 12.7204L65.9465 13.3884H68.5453L66.3644 31.4759L65.6964 34.7197C65.7803 34.7197 65.8794 34.735 65.9618 34.735C69.6067 34.6008 71.9401 31.7092 72.4556 27.5122L74.1576 13.3853H75.3776C76.5763 13.3853 77.9764 12.1805 78.2204 10.175L78.3333 9.45976ZM98.5132 9.12424C94.034 9.12424 89.8049 12.4337 88.5086 17.6342C87.2123 22.8348 89.1766 28.9854 95.768 28.9854C102.359 28.9854 106.134 22.5801 106.134 17.2484C106.14 11.9487 102.562 9.12272 98.5147 9.12272L98.5132 9.12424ZM100.328 18.7872C100.096 21.145 99.0622 24.7228 96.2317 24.7228C93.4011 24.7228 93.7839 20.5441 94.0584 18.5538C94.3588 16.4309 95.5408 13.4052 98.0877 13.4052C100.378 13.4052 100.593 16.1305 100.33 18.7887L100.328 18.7872ZM128.268 15.0919L125.837 22.7661C125.771 22.1637 124.122 9.44146 124.122 9.44146C120.294 9.44146 118.245 12.1836 117.171 15.0751L114.206 22.7829C114.191 22.2308 113.79 15.1575 113.79 15.1575C113.549 11.6132 110.316 9.45671 107.69 9.45671L110.836 28.7338C114.847 28.7185 117.012 25.9917 118.146 23.1001L120.644 16.5468C120.659 16.8137 122.376 28.7353 122.376 28.7353C126.405 28.7353 128.562 26.1777 129.732 23.3853L135.379 9.45824C131.417 9.45824 129.318 12.1836 128.252 15.0919H128.268ZM81.9965 0.862858L78.7328 27.2926L78.0648 30.5532C78.1472 30.5532 78.2478 30.5685 78.3302 30.5685C81.841 30.5181 84.339 27.4268 84.8072 23.5302L86.6877 8.36627C87.258 3.73459 84.5114 0.859807 81.9965 0.859807V0.862858Z" fill="#4353FF"/>
</svg>
