<svg width="90" height="31" viewBox="0 0 90 31" fill="none" xmlns="http://www.w3.org/2000/svg">
<path fill-rule="evenodd" clip-rule="evenodd" d="M89.9361 10.3479V25.2622L81.8444 30.9744H76.8698V28.4355L73.138 30.9744H68.7845V28.4355L65.9858 30.9744H57.9011L55.4138 28.4355L54.7915 30.9744L47.6552 30.9549L44.8412 28.4355L44.5304 30.9744L36.4456 30.9549L36.1348 28.4355L33.9584 30.9549L21.5202 30.9744L19.0323 29.7049V30.9744H12.1909L4.72781 26.2144L0.0634766 21.4545V0.511475H9.70297L14.3673 5.27143H35.5125V0.511475H52.9265V5.27143H57.28V7.81033L59.7679 5.27143H65.0546L69.7189 0.511475H79.6692V5.27143H84.9558L89.9361 10.3479ZM12.1909 7.49182H7.83736V2.73187H2.23991V20.5029L5.66029 24.3106H12.1909V18.2812H7.83736V13.2047H12.1909V7.49182ZM35.5125 7.49182H29.9151V18.2818H27.7386V7.49182H22.452V18.2818H20.2756V7.49182H14.3673V24.3106H31.7813L35.5125 20.5029V7.49182ZM42.9756 7.49182H37.6889V24.3106H42.9756V7.49182ZM42.9756 2.73187H37.6889V5.27077H42.9756V2.73187ZM55.103 7.49182H50.7495V2.73187H45.1526V20.5029L48.573 24.3106H55.1017V18.2812H50.7482V13.2047H55.1017L55.103 7.49182ZM69.4068 7.49182H60.7004L57.28 10.9823V20.5029L61.0112 24.3106H69.4061V18.2812H63.187V13.2047H69.4061L69.4068 7.49182ZM87.7533 10.9823L84.0221 7.49182H77.4921V2.73187H71.5839V24.3106H77.4921V13.2034H81.8456V24.3099H87.7539L87.7533 10.9823Z" fill="#1F2122"/>
</svg>
