<svg width="90" height="31" viewBox="0 0 90 31" fill="none" xmlns="http://www.w3.org/2000/svg">
<path fill-rule="evenodd" clip-rule="evenodd" d="M89.9361 10.3482V25.2624L81.8444 30.9746H76.8698V28.4357L73.138 30.9746H68.7845V28.4357L65.9858 30.9746H57.9011L55.4138 28.4357L54.7915 30.9746L47.6552 30.9551L44.8412 28.4357L44.5304 30.9746L36.4456 30.9551L36.1348 28.4357L33.9584 30.9551L21.5202 30.9746L19.0323 29.7052V30.9746H12.1909L4.72781 26.2147L0.0634766 21.4547V0.511719H9.70297L14.3673 5.27167H35.5125V0.511719H52.9265V5.27167H57.28V7.81057L59.7679 5.27167H65.0546L69.7189 0.511719H79.6692V5.27167H84.9558L89.9361 10.3482ZM12.1909 7.49207H7.83736V2.73212H2.23991V20.5031L5.66029 24.3108H12.1909V18.2814H7.83736V13.2049H12.1909V7.49207ZM35.5125 7.49207H29.9151V18.2821H27.7386V7.49207H22.452V18.2821H20.2756V7.49207H14.3673V24.3108H31.7813L35.5125 20.5031V7.49207ZM42.9756 7.49207H37.6889V24.3108H42.9756V7.49207ZM42.9756 2.73212H37.6889V5.27102H42.9756V2.73212ZM55.103 7.49207H50.7495V2.73212H45.1526V20.5031L48.573 24.3108H55.1017V18.2814H50.7482V13.2049H55.1017L55.103 7.49207ZM69.4068 7.49207H60.7004L57.28 10.9826V20.5031L61.0112 24.3108H69.4061V18.2814H63.187V13.2049H69.4061L69.4068 7.49207ZM87.7533 10.9826L84.0221 7.49207H77.4921V2.73212H71.5839V24.3108H77.4921V13.2036H81.8456V24.3102H87.7539L87.7533 10.9826Z" fill="#9147FF"/>
</svg>
