<svg width="114" height="38" viewBox="0 0 114 38" fill="none" xmlns="http://www.w3.org/2000/svg">
<path d="M48.7948 19.7262C48.7948 25.1191 44.5759 29.0931 39.3984 29.0931C34.2208 29.0931 30.002 25.1191 30.002 19.7262C30.002 14.2953 34.2208 10.3594 39.3984 10.3594C44.5759 10.3594 48.7948 14.2953 48.7948 19.7262ZM44.6815 19.7262C44.6815 16.3562 42.2363 14.0504 39.3984 14.0504C36.5604 14.0504 34.1153 16.3562 34.1153 19.7262C34.1153 23.0625 36.5604 25.4021 39.3984 25.4021C42.2363 25.4021 44.6815 23.0582 44.6815 19.7262Z" fill="#EA4335"/>
<path d="M69.0662 19.7262C69.0662 25.1191 64.8474 29.0931 59.6698 29.0931C54.4923 29.0931 50.2734 25.1191 50.2734 19.7262C50.2734 14.2995 54.4923 10.3594 59.6698 10.3594C64.8474 10.3594 69.0662 14.2953 69.0662 19.7262ZM64.9529 19.7262C64.9529 16.3562 62.5078 14.0504 59.6698 14.0504C56.8319 14.0504 54.3867 16.3562 54.3867 19.7262C54.3867 23.0625 56.8319 25.4021 59.6698 25.4021C62.5078 25.4021 64.9529 23.0582 64.9529 19.7262Z" fill="#FBBC05"/>
<path d="M88.4918 10.9253V27.7417C88.4918 34.6591 84.4123 37.4844 79.5895 37.4844C75.0497 37.4844 72.3173 34.448 71.2869 31.9648L74.8681 30.474C75.5058 31.9986 77.0683 33.7976 79.5853 33.7976C82.6724 33.7976 84.5854 31.893 84.5854 28.3076V26.9604H84.4418C83.5212 28.0964 81.7475 29.0888 79.5093 29.0888C74.8258 29.0888 70.5352 25.0093 70.5352 19.76C70.5352 14.4727 74.8258 10.3594 79.5093 10.3594C81.7433 10.3594 83.517 11.3518 84.4418 12.454H84.5854V10.9295H88.4918V10.9253ZM84.8768 19.76C84.8768 16.4618 82.6766 14.0504 79.8767 14.0504C77.0387 14.0504 74.6611 16.4618 74.6611 19.76C74.6611 23.0245 77.0387 25.4021 79.8767 25.4021C82.6766 25.4021 84.8768 23.0245 84.8768 19.76Z" fill="#4285F4"/>
<path d="M94.9319 1.06836V28.5185H90.9199V1.06836H94.9319Z" fill="#34A853"/>
<path d="M110.567 22.8094L113.76 24.9378C112.729 26.4624 110.246 29.0892 105.955 29.0892C100.634 29.0892 96.6602 24.9759 96.6602 19.7223C96.6602 14.152 100.668 10.3555 105.495 10.3555C110.356 10.3555 112.733 14.2238 113.51 16.3143L113.937 17.3785L101.415 22.5645C102.374 24.4437 103.865 25.4024 105.955 25.4024C108.05 25.4024 109.503 24.372 110.567 22.8094ZM100.74 19.4394L109.11 15.9638C108.65 14.794 107.264 13.9789 105.634 13.9789C103.544 13.9789 100.634 15.8244 100.74 19.4394Z" fill="#EA4335"/>
<path d="M14.8158 17.2894V13.3154H28.2072C28.3381 14.008 28.4057 14.8273 28.4057 15.7142C28.4057 18.6957 27.5906 22.3825 24.9639 25.0092C22.4089 27.6698 19.1444 29.0887 14.82 29.0887C6.80453 29.0887 0.0644531 22.5598 0.0644531 14.5444C0.0644531 6.52892 6.80453 0 14.82 0C19.2542 0 22.4131 1.73992 24.7865 4.00773L21.9824 6.81187C20.2805 5.21553 17.9746 3.97394 14.8158 3.97394C8.96253 3.97394 4.38469 8.69115 4.38469 14.5444C4.38469 20.3976 8.96253 25.1148 14.8158 25.1148C18.6123 25.1148 20.7746 23.5903 22.1597 22.2051C23.2831 21.0817 24.0221 19.477 24.3135 17.2852L14.8158 17.2894Z" fill="#4285F4"/>
</svg>
