<svg width="110" height="22" viewBox="0 0 110 22" fill="none" xmlns="http://www.w3.org/2000/svg">
<path d="M7.4374 21.0463H3.34119V10.7258H0.550781V7.36569H3.34108V4.97471C3.34108 2.14141 4.57524 0.109375 8.66036 0.109375C9.52436 0.109375 10.8808 0.285386 10.8808 0.285386V3.40545H9.4561C8.00442 3.40545 7.43762 3.85174 7.43762 5.08557V7.36569H10.8265L10.5247 10.7258H7.43751L7.4374 21.0463ZM16.8362 7.09717C16.7766 7.09717 16.7151 7.09937 16.6544 7.1009C12.8561 7.1009 11.1183 9.98849 11.1183 14.0875C11.1183 19.2511 13.3725 21.3178 16.6841 21.3178C18.5787 21.3178 19.8235 20.5118 20.5801 19.0077V21.0477H24.4762V7.36712H20.5801V9.471C19.9623 8.11741 18.6828 7.11321 16.8362 7.09717ZM17.8269 10.3299C19.4222 10.3299 20.3797 11.4545 20.3797 13.3674L20.3834 15.3212C20.3834 16.6105 19.5925 18.1189 17.8269 18.1189C15.1125 18.1189 15.185 15.1566 15.185 14.17C15.185 10.8512 16.6312 10.3299 17.8269 10.3299ZM26.0496 14.2081C26.0496 12.5457 25.9709 7.10607 32.983 7.10607C35.7978 7.10607 36.9731 8.01062 36.9731 8.01062L36.0284 10.9719C36.0284 10.9719 34.8546 10.3186 33.3251 10.3186C31.3661 10.3186 30.1161 11.4664 30.1161 13.486L30.1182 14.934C30.1182 16.8745 31.3243 18.1699 33.3291 18.1699C34.7225 18.1699 36.0068 17.5105 36.0068 17.5105L36.9491 20.4099C36.9491 20.4099 35.8744 21.3202 33.0027 21.3202C26.3261 21.3202 26.0497 16.4398 26.0497 14.2081H26.0496ZM59.8172 7.1009C63.6156 7.1009 65.3808 9.98849 65.3808 14.0875C65.3808 19.2511 63.1265 21.3178 59.8149 21.3178C57.9203 21.3178 56.5197 20.5119 55.7631 19.0077V21.0477L51.916 21.0462V0.52534L56.0006 0.165298V9.28565C56.5901 7.69002 58.5275 7.1009 59.8173 7.1009H59.8172ZM58.6721 10.3299C57.0768 10.3299 56.0006 11.4545 56.0006 13.3674L55.9968 15.3212C55.9944 16.6105 56.7421 18.1189 58.6721 18.1189C61.3865 18.1189 61.314 15.1566 61.314 14.17C61.314 10.8512 59.8679 10.3299 58.6721 10.3299ZM44.0602 7.11222C39.7521 7.11222 37.4777 9.48617 37.4777 13.7049V14.4887C37.4777 19.9643 40.6717 21.374 44.4795 21.374C48.1806 21.374 49.8559 20.3277 49.8559 20.3277L49.0916 17.5414C49.0916 17.5414 47.1209 18.3889 44.9692 18.3889C42.7385 18.3889 41.7792 17.8143 41.5333 15.6476H50.1825V13.4123C50.1825 8.83607 47.6299 7.11211 44.0601 7.11211L44.0602 7.11222ZM44.164 9.90224C45.6552 9.90224 46.6215 10.8265 46.5685 12.9699H41.5408C41.628 10.714 42.67 9.90235 44.164 9.90235V9.90224ZM73.5252 7.09343C69.1012 7.09343 66.7721 9.61318 66.7721 14.1287C66.7721 20.3242 70.7869 21.3215 73.5326 21.3215C77.5522 21.3215 80.2264 19.1343 80.2264 14.1849C80.2264 9.0335 77.2195 7.09343 73.5252 7.09343ZM73.4696 10.3411C75.4149 10.3411 76.1857 11.8125 76.1857 13.4875V14.9275C76.1857 16.9566 75.1071 18.1302 73.4622 18.1302C71.9237 18.1302 70.8425 17.0324 70.8425 14.9275V13.4875C70.8425 11.2426 72.1291 10.3411 73.4696 10.3411ZM88.3636 7.09343C83.9395 7.09343 81.6105 9.61318 81.6105 14.1287C81.6105 20.3242 85.6252 21.3215 88.371 21.3215C92.3904 21.3215 95.0647 19.1343 95.0647 14.1849C95.0647 9.0335 92.0578 7.09343 88.3636 7.09343ZM88.3079 10.3411C90.2532 10.3411 91.024 11.8125 91.024 13.4875V14.9275C91.024 16.9566 89.9454 18.1302 88.3005 18.1302C86.7621 18.1302 85.6809 17.0324 85.6809 14.9275V13.4875C85.6809 11.2426 86.9675 10.3411 88.3079 10.3411ZM96.6083 21.0463V0.52534L100.705 0.165298V13.9197L104.769 7.36569H109.095L104.855 14.1537L109.258 21.0463H104.92L100.705 14.3537V21.0463H96.6083Z" fill="#1877F2"/>
</svg>
