<svg width="142" height="35" viewBox="0 0 142 35" fill="none" xmlns="http://www.w3.org/2000/svg">
<path d="M55.6943 12.9154H60.1658V26.9604H55.6943V12.9154Z" fill="#1F2122"/>
<path d="M61.0996 12.9154H65.4064V14.8357H65.4886C66.531 13.3269 67.8752 12.504 69.8229 12.504C72.8952 12.504 74.7057 14.6985 74.7057 17.8257V26.9604H70.2343V18.731C70.2343 17.2496 69.4937 16.2346 68.0398 16.2346C66.5586 16.2346 65.5709 17.4691 65.5709 19.1972V26.9604H61.0996V12.9154Z" fill="#1F2122"/>
<path d="M60.6114 9.15819C60.6114 7.67679 59.4105 6.47603 57.9292 6.47603C56.448 6.47603 55.2471 7.67679 55.2471 9.15819C55.2471 10.6395 56.448 11.8402 57.9292 11.8402C59.4105 11.8402 60.6114 10.6395 60.6114 9.15819Z" fill="#1F2122"/>
<path d="M106.155 12.7127C106.027 12.7012 105.881 12.6961 105.71 12.6961C104.009 12.6961 102.857 13.4367 101.869 15.1101H101.787V12.9156H97.5078V26.9604H101.979V20.6512C101.979 17.7279 103.598 16.3732 106.155 16.6096V12.7127Z" fill="#1F2122"/>
<path d="M128.095 18.1009C126.312 17.7718 124.721 17.6346 124.721 16.6471C124.721 15.7692 125.572 15.3578 126.669 15.3578C127.903 15.3578 128.754 15.7418 128.918 17.0037H133.033C132.814 14.2332 130.674 12.5049 126.696 12.5049C123.377 12.5049 120.634 14.0411 120.634 17.0037C120.634 20.2954 123.24 20.9538 125.681 21.3653C127.547 21.6946 129.247 21.8317 129.247 23.0935C129.247 23.9988 128.397 24.4925 127.053 24.4925C125.704 24.4925 124.812 23.922 124.539 22.7644H120.278C120.592 25.6516 123.126 27.4003 127.08 27.4003C130.756 27.4003 133.472 25.8093 133.472 22.737C133.472 19.1433 130.564 18.5124 128.095 18.1009Z" fill="#1F2122"/>
<path d="M113.092 15.6863C114.546 15.6863 115.588 16.7562 115.753 18.4297H110.211C110.513 16.7562 111.391 15.6863 113.092 15.6863ZM113.339 24.1626C111.501 24.1626 110.458 22.9832 110.184 21.0904H120.279C120.306 18.2376 119.483 15.7961 117.81 14.26C116.603 13.1628 115.012 12.5043 113.009 12.5043C108.73 12.5043 105.795 15.7137 105.795 19.9109C105.795 24.1626 108.648 27.3723 113.284 27.3723C115.067 27.3723 116.493 26.906 117.673 26.083C118.907 25.2326 119.73 24.0256 120.032 22.7638H115.67C115.286 23.6416 114.518 24.1626 113.339 24.1626Z" fill="#1F2122"/>
<path d="M141.345 23.6483C141.138 23.6564 140.86 23.6685 140.604 23.6685C139.644 23.6685 139.041 23.3941 139.041 22.2968V15.7132H141.345V12.9152H139.041V8.47128H134.679V12.9152H133.307V15.7132H134.679V23.2569C134.679 26.2745 136.544 27.1248 139.15 27.1248C140.145 27.1248 140.896 27.0503 141.345 26.9627V23.6483Z" fill="#1F2122"/>
<path d="M82.6887 23.6557C82.5103 23.6627 82.3044 23.6696 82.112 23.6696C81.1521 23.6696 80.5484 23.3952 80.5484 22.2979V15.7143H82.6887V12.9163H80.5484V8.47238H76.1868V12.9163H74.7324V15.7143H76.1868V23.258C76.1868 26.2756 78.0521 27.1259 80.6582 27.1259C81.5399 27.1259 82.2303 27.0672 82.6887 26.9929V23.6557Z" fill="#1F2122"/>
<path d="M92.4313 18.4297C92.2668 16.7563 91.2242 15.6863 89.7703 15.6863C88.0696 15.6863 87.1918 16.7563 86.89 18.4297H92.4313ZM82.4736 19.9109C82.4736 15.7139 85.4088 12.5045 89.6881 12.5045C91.6906 12.5045 93.2817 13.1628 94.4887 14.26C96.162 15.7962 96.9849 18.2376 96.9575 21.0905H86.8628C87.1369 22.9832 88.1793 24.1628 90.0174 24.1628C91.1968 24.1628 91.965 23.6416 92.3489 22.7638H96.7106C96.4088 24.0256 95.5859 25.2326 94.3514 26.0831C93.172 26.906 91.7455 27.3723 89.9624 27.3723C85.3264 27.3723 82.4736 24.1628 82.4736 19.9109Z" fill="#1F2122"/>
<path d="M47.9306 16.5639C49.6863 16.5639 50.6738 15.5215 50.6738 13.9577C50.6738 12.3943 49.6587 11.4342 47.9306 11.4342H44.5014V16.5639H47.9306ZM39.9746 7.34686H47.7393C50.1258 7.34686 51.8815 8.00516 53.0884 9.15734C54.3504 10.3368 55.0636 12.0103 55.0636 13.9853C55.0636 17.7434 52.4575 20.4044 48.425 20.4044H44.5014V26.9604H39.9746V7.34686Z" fill="#1F2122"/>
<path d="M33.8377 17.7433C33.8377 27.0667 26.2795 34.625 16.956 34.625C7.63248 34.625 0.0742188 27.0667 0.0742188 17.7433C0.0742188 8.41963 7.63248 0.861504 16.956 0.861504C26.2795 0.861504 33.8377 8.41963 33.8377 17.7433Z" fill="#F7F7FB"/>
<path d="M16.955 0.860893C7.6315 0.860893 0.0732422 8.41916 0.0732422 17.7426C0.0732422 24.8946 4.52298 31.0086 10.8029 33.4683C10.6553 32.1326 10.5219 30.0785 10.8614 28.6203C11.1682 27.3028 12.841 20.229 12.841 20.229C12.841 20.229 12.336 19.2177 12.336 17.7226C12.336 15.3752 13.6966 13.6227 15.3907 13.6227C16.831 13.6227 17.5267 14.704 17.5267 16.0007C17.5267 17.4491 16.6045 19.6147 16.1286 21.6215C15.7308 23.3018 16.9712 24.6721 18.6285 24.6721C21.6289 24.6721 23.9354 21.5083 23.9354 16.9415C23.9354 12.8995 21.031 10.0734 16.8837 10.0734C12.0803 10.0734 9.26084 13.6762 9.26084 17.3996C9.26084 18.8505 9.81977 20.4064 10.5172 21.2522C10.6552 21.4194 10.6754 21.5658 10.6343 21.7364C10.5062 22.2696 10.2214 23.4163 10.1655 23.6509C10.0918 23.96 9.92079 24.0256 9.60085 23.8767C7.49243 22.8952 6.17418 19.8126 6.17418 17.3366C6.17418 12.0113 10.0434 7.1207 17.3286 7.1207C23.1849 7.1207 27.7359 11.2938 27.7359 16.8708C27.7359 22.6889 24.0675 27.3713 18.9758 27.3713C17.2651 27.3713 15.6569 26.4826 15.1065 25.4328C15.1065 25.4328 14.26 28.656 14.0547 29.4459C13.6736 30.9122 12.6447 32.7503 11.9566 33.8716C13.5361 34.3606 15.2147 34.6244 16.955 34.6244C26.2786 34.6244 33.8369 27.0661 33.8369 17.7426C33.8369 8.41916 26.2786 0.860893 16.955 0.860893Z" fill="#1F2122"/>
</svg>
