<svg width="110" height="22" viewBox="0 0 110 22" fill="none" xmlns="http://www.w3.org/2000/svg">
<path d="M7.43837 21.0473H3.34217V10.7268H0.551758V7.36667H3.34206V4.97569C3.34206 2.14238 4.57622 0.110352 8.66133 0.110352C9.52534 0.110352 10.8818 0.286362 10.8818 0.286362V3.40643H9.45707C8.00539 3.40643 7.43859 3.85272 7.43859 5.08655V7.36667H10.8274L10.5257 10.7268H7.43848L7.43837 21.0473ZM16.8372 7.09815C16.7775 7.09815 16.7161 7.10034 16.6554 7.10188C12.8571 7.10188 11.1193 9.98946 11.1193 14.0885C11.1193 19.2521 13.3735 21.3187 16.685 21.3187C18.5797 21.3187 19.8245 20.5127 20.5811 19.0086V21.0487H24.4772V7.36809H20.5811V9.47198C19.9633 8.11839 18.6837 7.11419 16.8372 7.09815ZM17.8279 10.3308C19.4232 10.3308 20.3807 11.4554 20.3807 13.3684L20.3843 15.3222C20.3843 16.6115 19.5935 18.1199 17.8279 18.1199C15.1134 18.1199 15.186 15.1576 15.186 14.171C15.186 10.8522 16.6322 10.3308 17.8279 10.3308ZM26.0506 14.2091C26.0506 12.5467 25.9719 7.10704 32.984 7.10704C35.7987 7.10704 36.9741 8.0116 36.9741 8.0116L36.0294 10.9729C36.0294 10.9729 34.8556 10.3196 33.3261 10.3196C31.3671 10.3196 30.117 11.4674 30.117 13.4869L30.1192 14.935C30.1192 16.8755 31.3253 18.1709 33.3301 18.1709C34.7235 18.1709 36.0078 17.5114 36.0078 17.5114L36.9501 20.4109C36.9501 20.4109 35.8754 21.3212 33.0037 21.3212C26.3271 21.3212 26.0507 16.4408 26.0507 14.2091H26.0506ZM59.8182 7.10188C63.6165 7.10188 65.3817 9.98946 65.3817 14.0885C65.3817 19.2521 63.1275 21.3187 59.8159 21.3187C57.9212 21.3187 56.5207 20.5128 55.7641 19.0086V21.0487L51.917 21.0471V0.526316L56.0016 0.166275V9.28663C56.5911 7.691 58.5285 7.10188 59.8183 7.10188H59.8182ZM58.6731 10.3308C57.0778 10.3308 56.0016 11.4554 56.0016 13.3684L55.9978 15.3222C55.9954 16.6115 56.7431 18.1199 58.6731 18.1199C61.3875 18.1199 61.315 15.1576 61.315 14.171C61.315 10.8522 59.8689 10.3308 58.6731 10.3308ZM44.0612 7.1132C39.7531 7.1132 37.4787 9.48714 37.4787 13.7059V14.4897C37.4787 19.9653 40.6726 21.375 44.4804 21.375C48.1816 21.375 49.8569 20.3287 49.8569 20.3287L49.0926 17.5424C49.0926 17.5424 47.1219 18.3898 44.9702 18.3898C42.7395 18.3898 41.7801 17.8152 41.5343 15.6486H50.1835V13.4133C50.1835 8.83705 47.6309 7.11309 44.0611 7.11309L44.0612 7.1132ZM44.165 9.90322C45.6562 9.90322 46.6225 10.8274 46.5695 12.9709H41.5418C41.6289 10.7149 42.671 9.90333 44.165 9.90333V9.90322ZM73.5262 7.09441C69.1021 7.09441 66.7731 9.61415 66.7731 14.1297C66.7731 20.3252 70.7879 21.3225 73.5336 21.3225C77.5532 21.3225 80.2274 19.1353 80.2274 14.1859C80.2274 9.03448 77.2205 7.09441 73.5262 7.09441ZM73.4706 10.342C75.4159 10.342 76.1867 11.8135 76.1867 13.4885V14.9285C76.1867 16.9576 75.1081 18.1312 73.4632 18.1312C71.9247 18.1312 70.8435 17.0334 70.8435 14.9285V13.4885C70.8435 11.2436 72.1301 10.342 73.4706 10.342ZM88.3646 7.09441C83.9405 7.09441 81.6114 9.61415 81.6114 14.1297C81.6114 20.3252 85.6262 21.3225 88.3719 21.3225C92.3914 21.3225 95.0657 19.1353 95.0657 14.1859C95.0657 9.03448 92.0588 7.09441 88.3646 7.09441ZM88.3089 10.342C90.2542 10.342 91.025 11.8135 91.025 13.4885V14.9285C91.025 16.9576 89.9464 18.1312 88.3015 18.1312C86.7631 18.1312 85.6819 17.0334 85.6819 14.9285V13.4885C85.6819 11.2436 86.9684 10.342 88.3089 10.342ZM96.6093 21.0473V0.526316L100.706 0.166275V13.9207L104.77 7.36667H109.096L104.856 14.1547L109.259 21.0473H104.921L100.706 14.3547V21.0473H96.6093Z" fill="#1F2122"/>
</svg>
