<svg width="136" height="35" viewBox="0 0 136 35" fill="none" xmlns="http://www.w3.org/2000/svg">
<path d="M44.2649 14.0553C44.2649 11.6152 41.9239 9.0561 37.855 9.0561C33.2919 9.0561 28.282 12.4159 27.5149 19.1217C26.731 25.893 30.9265 28.902 35.1556 28.902C39.3846 28.902 41.5991 27.2473 43.8638 25.0405C41.9163 22.5851 39.4014 23.7198 38.9195 23.9699C38.1217 24.4144 37.2183 24.6342 36.3055 24.6059C34.6737 24.6059 33.0083 23.8708 33.0083 20.8115C43.4642 19.7744 44.2634 16.4802 44.2634 14.0553H44.2649ZM39.0827 14.4564C39.0156 15.2083 38.7167 16.4955 33.4216 17.2168C34.5349 13.2364 36.67 12.9374 37.6506 12.9374C37.8494 12.9284 38.0477 12.9622 38.2323 13.0366C38.4168 13.111 38.5831 13.2242 38.72 13.3686C38.8568 13.513 38.961 13.6852 39.0255 13.8734C39.0899 14.0616 39.113 14.2615 39.0934 14.4595L39.0827 14.4564ZM21.3734 15.1092L18.9424 22.7834L17.2267 9.45873C13.3987 9.45873 11.3399 12.2008 10.2662 15.0924L7.30143 22.8002L6.88508 15.1747C6.65937 11.6304 3.42314 9.47398 0.807617 9.47398L3.97064 28.7511C7.98162 28.7358 10.1472 26.0089 11.2804 23.1174L13.7876 16.5641C13.8105 16.831 15.5201 28.7526 15.5201 28.7526C19.5494 28.7526 21.715 26.195 22.8756 23.4026L28.5184 9.4755C24.5456 9.4755 22.4516 12.2008 21.3703 15.1092H21.3734ZM59.0522 9.00883C56.5708 9.00883 54.6752 10.3631 53.0738 12.3518V12.3366L54.5043 0.750488C51.2071 0.750488 48.526 3.6268 48.0105 7.90619L45.5307 28.6016C47.4295 28.6016 49.4441 28.0495 50.5269 26.6449C51.4938 27.8985 52.9411 28.902 55.09 28.902C60.6504 28.902 64.4647 22.4158 64.4647 16.3292C64.4311 10.7779 61.75 9.02408 59.0689 9.02408L59.0522 9.00883ZM58.5336 18.957C57.9541 22.3503 56.0691 24.6577 54.2558 24.6577C52.4424 24.6577 51.6418 23.8388 51.6418 23.8388C51.9925 20.8648 52.2091 19.0408 52.874 17.4685C53.539 15.8961 55.122 13.3889 56.7706 13.3889C58.3872 13.3889 59.1193 15.5453 58.5351 18.9554L58.5336 18.957ZM78.3323 9.46025H74.4525L74.4677 9.25894C74.7346 6.71815 75.334 5.38065 77.3105 5.16256C78.6602 5.02835 79.2595 4.32681 79.409 3.55817L79.8924 0.866395C72.1145 0.816067 69.653 4.19108 69.0262 9.34282L69.011 9.46025H68.9271C67.6613 9.46025 66.2643 10.8984 66.0294 12.7209L65.9455 13.3889H68.5443L66.3634 31.4764L65.6954 34.7202C65.7793 34.7202 65.8784 34.7355 65.9608 34.7355C69.6057 34.6013 71.9391 31.7097 72.4546 27.5127L74.1566 13.3858H75.3767C76.5754 13.3858 77.9754 12.181 78.2194 10.1755L78.3323 9.46025ZM98.5122 9.12473C94.033 9.12473 89.804 12.4342 88.5076 17.6347C87.2113 22.8352 89.1756 28.9859 95.767 28.9859C102.358 28.9859 106.133 22.5806 106.133 17.2489C106.139 11.9492 102.561 9.12321 98.5137 9.12321L98.5122 9.12473ZM100.327 18.7877C100.095 21.1455 99.0612 24.7233 96.2307 24.7233C93.4001 24.7233 93.7829 20.5446 94.0574 18.5543C94.3579 16.4314 95.5398 13.4056 98.0867 13.4056C100.377 13.4056 100.592 16.131 100.329 18.7892L100.327 18.7877ZM128.267 15.0924L125.836 22.7666C125.77 22.1642 124.121 9.44195 124.121 9.44195C120.293 9.44195 118.244 12.1841 117.17 15.0756L114.205 22.7834C114.19 22.2313 113.789 15.158 113.789 15.158C113.548 11.6137 110.315 9.4572 107.689 9.4572L110.835 28.7343C114.846 28.719 117.011 25.9922 118.145 23.1006L120.643 16.5473C120.658 16.8142 122.375 28.7358 122.375 28.7358C126.404 28.7358 128.561 26.1782 129.731 23.3858L135.378 9.45873C131.416 9.45873 129.317 12.1841 128.251 15.0924H128.267ZM81.9955 0.863347L78.7318 27.2931L78.0639 30.5537C78.1462 30.5537 78.2469 30.569 78.3292 30.569C81.84 30.5186 84.3381 27.4273 84.8063 23.5307L86.6867 8.36676C87.2571 3.73508 84.5104 0.860295 81.9955 0.860295V0.863347Z" fill="#1F2122"/>
</svg>
