<svg width="49" height="32" viewBox="0 0 49 32" fill="none" xmlns="http://www.w3.org/2000/svg">
<path d="M20.1713 26.9465C28.8755 30.4995 40.4585 28.2813 44.421 21.1334C47.2253 16.0746 38.4404 12.0446 33.9561 12.9624C30.5717 13.6551 28.5575 17.4365 26.3744 16.0326C24.6955 10.7136 21.7187 3.7994 10.2373 1.9784C6.49323 1.3847 1.07087 2.4689 4.4075 6.24515C6.91996 9.0878 10.6219 10.4703 14.3626 11.9376C15.4893 12.38 16.3744 13.4492 17.5811 13.7309C17.8682 13.7978 18.4924 13.6239 18.4583 13.8735C18.3838 14.4086 6.45917 9.26945 5.43466 12.7976C4.69476 15.3455 13.2952 16.8041 15.1169 17.0994C15.2313 17.1179 16.0046 17.1603 15.9931 17.2418C15.9327 17.6795 9.13789 16.6778 7.99379 18.7418C6.46378 21.5007 12.185 21.7377 13.9465 21.5808C15.4187 21.4493 16.9118 21.4149 18.3455 21.1886C18.3928 21.1812 20.699 20.9724 16.2768 21.6882C12.3608 22.3221 2.30347 23.9363 2.03487 25.2459C1.76627 26.5556 3.11404 26.9252 3.86437 28.1063C4.61474 29.2872 5.14988 29.523 5.93396 30.1305C6.71787 30.7379 11.5788 24.7439 16.7773 26.2101M43.635 15.869C48.019 17.3319 48.8109 15.7835 44.7988 17.8694M38.0598 17.3739C38.0215 17.2845 37.9828 17.1948 37.9441 17.1051" stroke="black" stroke-opacity="0.9" stroke-width="2.4" stroke-linecap="round" stroke-linejoin="round"/>
</svg>
